<?xml version="1.0" encoding="UTF-8"?>
<svg id="Layer_1" data-name="Layer 1" xmlns="http://www.w3.org/2000/svg" viewBox="0 0 576 576">
  <defs>
    <style>
      .cls-1 {
        fill: #8e351e;
      }
    </style>
  </defs>
  <path class="cls-1" d="m302.52,446.11c-2.44,0-4.77-1.05-6.38-2.88l-114.43-129.98-.31-.32c-14.7-15.46-22.76-35.83-22.76-57.4,0-45.19,35.69-81.95,79.57-81.95,23.05,0,37.23,13.8,48.7,26.74,5.2,5.86,9.62,11.9,13.26,17.46,11.72-21.03,28.66-44.2,62.71-44.2,43.87,0,79.56,36.76,79.56,81.95,0,19.16-6.54,37.78-18.42,52.45-.13.17-.28.35-.41.49l-4.99,5.52-109.63,129.12c-1.6,1.88-3.93,2.98-6.4,3h-.08Zm-64.31-255.53c-34.5,0-62.57,29.14-62.57,64.95,0,17.19,6.4,33.4,18.03,45.63l.39.41c.09.1.18.2.27.3l108.07,122.75,103.35-121.72c.06-.07.11-.13.17-.2l4.88-5.4c9.44-11.65,14.64-26.48,14.64-41.76,0-35.81-28.07-64.95-62.56-64.95-29.32,0-41.37,22.93-53.02,45.1-.61,1.16-1.21,2.3-1.8,3.42-1.47,2.78-4.36,4.52-7.51,4.52h0c-3.15,0-6.04-1.74-7.51-4.52-5.31-10.03-12-19.8-18.84-27.5-11.81-13.32-21.49-21.02-35.99-21.02Zm179.1,112.19h0,0Z"/>
</svg>