<?xml version="1.0" encoding="UTF-8"?>
<svg id="Layer_1" data-name="Layer 1" xmlns="http://www.w3.org/2000/svg" viewBox="0 0 411.76 283.62">
  <defs>
    <style>
      .cls-1 {
        fill: #8e361f;
      }

      .cls-2 {
        fill: #fff;
        fill-rule: evenodd;
      }
    </style>
  </defs>
  <circle id="Ellipse_19" data-name="Ellipse 19" class="cls-1" cx="205.88" cy="141.81" r="61"/>
  <path id="facebook-svgrepo-com" class="cls-2" d="m175.56,123.57c0-6.7,5.43-12.13,12.13-12.13h36.39c6.7,0,12.13,5.43,12.13,12.13,0,0,0,0,0,0v36.39c0,6.7-5.43,12.13-12.13,12.13h-36.39c-6.7,0-12.13-5.43-12.13-12.13h0v-36.39Zm12.13-6.06c-3.35,0-6.06,2.71-6.06,6.06v36.39c0,3.35,2.71,6.06,6.06,6.06h18.19v-21.22h-3.03c-1.67,0-3.03-1.36-3.03-3.03,0-1.67,1.36-3.03,3.03-3.03h3.04v-4.55c0-5.86,4.75-10.61,10.61-10.61h1.82c1.67,0,3.03,1.36,3.03,3.03s-1.36,3.03-3.03,3.03h-1.82c-2.51,0-4.55,2.04-4.55,4.55h0v4.55h6.37c1.67,0,3.03,1.36,3.03,3.03,0,1.67-1.36,3.03-3.03,3.03h-6.37v21.22h12.13c3.35,0,6.06-2.71,6.06-6.06v-36.39c0-3.35-2.71-6.06-6.06-6.06h-36.39Z"/>
</svg>