<?xml version="1.0" encoding="utf-8"?>
<!-- Generator: Adobe Illustrator 28.0.0, SVG Export Plug-In . SVG Version: 6.00 Build 0)  -->
<svg version="1.1" id="Layer_1" xmlns="http://www.w3.org/2000/svg" xmlns:xlink="http://www.w3.org/1999/xlink" x="0px" y="0px"
	 viewBox="0 0 1000 1000" style="enable-background:new 0 0 1000 1000;" xml:space="preserve">
<path d="M540.8,423.3h42.8L562.1,577h-42.8L540.8,423.3L540.8,423.3z M486.8,423.3l-28.9,88.6l-12.6-88.6h-30l-37.9,88.3l-4.7-88.3
	h-41.5L345.6,577h34.4l42.6-97.2l15,97.2h33.9l56-153.8H486.8z M846.5,512.6H744.7c0.5,20,12.5,33.1,30.1,33.1
	c13.3,0,23.8-7.1,31.9-20.6l34.3,15.6c-11.8,23.3-36.7,38.4-67.3,38.4c-41.8,0-69.5-28.1-69.5-73.3c0-49.7,32.6-84.9,78.6-84.9
	c40.5,0,66,27.3,66,69.9C848.8,497.9,848,505,846.5,512.6z M808.4,483.2c0-17.9-10-29.2-26-29.2c-16.6,0-30.2,11.8-33.9,29.2H808.4
	L808.4,483.2z M197.3,469.6l-43.7,51.1h78.1l8.8-24.1h-33.5l20.4-23.6l0.1-0.6l-13.3-22.9H274L227.6,577h31.7l56-153.8H170.7
	L197.3,469.6L197.3,469.6z M653.3,454c15.1,0,28.3,8.1,39.9,22.1l6.1-43.3c-10.8-7.3-25.4-11.8-44.7-11.8c-38.4,0-59.9,22.5-59.9,51
	c0,19.8,11,31.9,29.2,39.7l8.7,3.9c16.2,6.9,20.5,10.3,20.5,17.6c0,7.6-7.3,12.4-18.4,12.4c-18.3,0.1-33.2-9.3-44.4-25.4l-6.2,44.2
	c12.7,9.7,29,14.8,50.5,14.8c36.5,0,58.9-21,58.9-50.2c0-19.8-8.8-32.6-31-42.6l-9.5-4.5c-13.1-5.8-17.6-9.1-17.6-15.5
	C635.4,459.4,641.5,454,653.3,454z"/>
</svg>
