<?xml version="1.0" encoding="UTF-8"?>
<svg id="Layer_1" data-name="Layer 1" xmlns="http://www.w3.org/2000/svg" xmlns:xlink="http://www.w3.org/1999/xlink" viewBox="0 0 411.76 283.62">
  <defs>
    <style>
      .cls-1, .cls-2, .cls-3 {
        fill: none;
      }

      .cls-2 {
        clip-path: url(#clippath-1);
      }

      .cls-4, .cls-5 {
        fill: #fff;
      }

      .cls-6 {
        fill: #faf4e9;
      }

      .cls-7 {
        fill: #8e361f;
      }

      .cls-5 {
        fill-rule: evenodd;
      }

      .cls-3 {
        clip-path: url(#clippath);
      }
    </style>
    <clipPath id="clippath">
      <rect class="cls-1" x="-568.26" y="1056.1" width="1920" height="1505"/>
    </clipPath>
    <clipPath id="clippath-1">
      <rect class="cls-1" x="-718.46" y="251.14" width="2585.66" height="2883.1"/>
    </clipPath>
  </defs>
  <g class="cls-3">
    <g id="Mask_Group_4" data-name="Mask Group 4">
      <g id="Group_41" data-name="Group 41">
        <g class="cls-2">
          <g id="Group_40" data-name="Group 40">
            <path id="Path_301" data-name="Path 301" class="cls-6" d="m477.04,374.33v-1.05c13.11-9.22,20.78-20.59,20.78-33.02v-35.1c0-30.8-48.23-54.02-112.19-54.02s-112.19,23.22-112.19,54.01v9.43c-13.55,9.08-20.78,20.14-20.78,32.12v35.11c0,13.7,9.29,26.11,24.93,35.77v26.56c0,31.57,49.28,56.31,112.19,56.31s112.19-24.74,112.19-56.31v-35.11c0-13.23-8.67-25.18-24.93-34.71m12.47-34.06c0,6.5-2.97,12.76-8.31,18.47v-23.15c.24-.2.47-.4.71-.61s.48-.44.73-.66c1.04-.92,2.02-1.86,2.96-2.81.24-.25.49-.49.73-.74,1.06-1.11,2.05-2.25,2.97-3.4.07-.09.15-.17.22-.25v13.13Zm-103.88-80.81c58.25,0,103.88,20.08,103.88,45.71s-48.54,49.86-103.88,49.86-103.88-23.3-103.88-49.86,45.63-45.71,103.88-45.71m-31.05,178.44c.16,0,.32.01.47.02.17,0,.35.01.53.02l1.05.04c2.72.1,5.45.16,8.23.16,1.94,0,3.87-.02,5.79-.07.63-.02,1.24-.05,1.87-.07.26-.01.52-.02.78-.03.38-.01.76-.02,1.14-.04.64-.02,1.29-.04,1.93-.07.75-.04,1.49-.09,2.23-.14,1.13-.07,2.26-.12,3.37-.21.82-.06,1.62-.13,2.44-.21,1.03-.09,2.07-.17,3.08-.27.81-.08,1.61-.18,2.42-.27,1-.11,2.01-.21,3-.34.82-.1,1.61-.22,2.42-.33.96-.13,1.93-.26,2.88-.4.81-.12,1.6-.26,2.4-.39.93-.15,1.87-.3,2.79-.46.8-.14,1.58-.3,2.37-.45.9-.17,1.8-.34,2.69-.53.79-.16,1.57-.34,2.35-.51.87-.19,1.74-.38,2.59-.58.77-.18,1.53-.38,2.28-.57.85-.21,1.7-.42,2.53-.64.74-.2,1.46-.4,2.2-.61.83-.23,1.66-.46,2.47-.71.72-.21,1.43-.44,2.15-.66.79-.25,1.58-.5,2.36-.75.71-.23,1.4-.48,2.09-.72.76-.27,1.52-.53,2.26-.8.69-.25,1.35-.51,2.03-.77.73-.28,1.46-.57,2.18-.86.65-.27,1.29-.54,1.94-.81.71-.31,1.42-.6,2.11-.91.62-.28,1.23-.57,1.84-.85.68-.31,1.35-.63,2.02-.96.6-.29,1.19-.6,1.77-.9.64-.33,1.28-.66,1.9-1.01.57-.31,1.13-.63,1.69-.94.61-.35,1.22-.7,1.81-1.05.54-.32,1.07-.65,1.59-.98.58-.37,1.15-.73,1.72-1.1.51-.34,1.01-.68,1.5-1.02.54-.38,1.08-.76,1.61-1.15.47-.34.94-.7,1.4-1.05.51-.39,1.01-.79,1.51-1.19.44-.36.87-.72,1.3-1.09.47-.41.94-.82,1.39-1.23.41-.37.81-.74,1.2-1.12.43-.42.86-.85,1.28-1.27.37-.38.74-.76,1.1-1.15.39-.43.78-.87,1.15-1.3.34-.39.67-.79.99-1.19.35-.44.7-.89,1.03-1.34.3-.4.6-.8.88-1.21.23-.33.45-.66.67-.99,3.67,3.2,5.71,6.42,5.71,9.16,0,11.24-30.8,33.1-87.26,33.1-14.23.13-28.43-1.43-42.29-4.65,2.33.18,4.7.3,7.09.4m-14.86-9.58c-1.36-.16-2.69-.35-4.03-.53-1.38-.19-2.72-.43-4.08-.65v-24.86c2.25.36,4.54.68,6.85.96.6.07,1.2.15,1.8.22,2.33.27,4.68.51,7.06.71.12,0,.24.02.37.03l.55.04v24.86c-2.86-.22-5.7-.46-8.51-.79m16.82,1.25v-24.84c.18,0,.37,0,.56.01,2.56.09,5.14.15,7.75.15,2.79,0,5.55-.1,8.31-.2v24.96c-.09,0-.18,0-.26,0-2.67.1-5.34.16-8.05.16s-5.55-.15-8.31-.26m37.4-41.56c-2.77.11-5.52.26-8.31.26s-5.56-.07-8.31-.17v-24.93c.18,0,.38,0,.56.01,2.56.09,5.14.15,7.75.15s5.19-.06,7.75-.15c.18,0,.38,0,.56-.01v24.84Zm1.69,14.62c.83-.12,1.63-.29,2.46-.43v24.98c-.35.06-.7.11-1.05.17-1.24.19-2.49.38-3.75.55-.98.13-1.95.27-2.94.4-2.15.26-4.32.48-6.51.67-.73.07-1.45.13-2.19.19h-.18s0-24.97,0-24.97c1.37-.11,2.75-.18,4.1-.31,1.37-.14,2.71-.34,4.07-.5,2-.24,4.02-.45,6-.75m18.55-16.3c-.83.11-1.65.23-2.49.34-3.11.38-6.27.65-9.45.9v-24.87c.18-.01.36-.03.54-.04.12-.02.24-.03.37-.04,2.38-.2,4.73-.44,7.06-.71.6-.07,1.2-.14,1.8-.21,2.3-.29,4.6-.6,6.84-.96v24.84c-1.56.25-3.09.54-4.68.76m4.67,11.2v25.04c-3.99,1.15-8.16,2.18-12.46,3.07v-24.97c1.1-.23,2.17-.51,3.26-.76,1.74-.4,3.51-.77,5.21-1.21,1.36-.36,2.66-.78,4-1.17m9.11-2.93c1.53-.54,3.08-1.06,4.56-1.65,1.01-.4,1.96-.85,2.95-1.28v24.97c-2.65,1.15-5.41,2.24-8.3,3.26v-25.02c.26-.1.53-.19.79-.29m-.79-10.51v-24.9c.24-.05.46-.11.69-.16,2.24-.47,4.45-.97,6.61-1.52.28-.07.56-.15.84-.22,1.46-.38,2.91-.77,4.33-1.17v24.88c-.53.15-1.07.31-1.6.45h-.02c-.93.26-1.87.52-2.82.77-2.29.59-4.62,1.14-6.98,1.64-.35.07-.69.15-1.04.22m24.93,1.81v21.54c-2.66,1.89-5.44,3.61-8.31,5.16v-23.95c2.86-.86,5.63-1.78,8.31-2.76m-4.15-7.54v-24.85c.23-.08.44-.15.66-.23.31-.12.62-.23.93-.34,1.72-.62,3.4-1.26,5.04-1.93.47-.19.94-.38,1.4-.57l.27-.11v24.78c-2.65,1.15-5.42,2.24-8.31,3.26m12.46,21.91v-17.71c2.91-1.29,5.69-2.65,8.31-4.09v3.35c-.02,3.2-.72,6.36-2.05,9.27l-.38.78c-1.34,2.68-3.02,5.18-5.01,7.42-.25.28-.48.57-.74.85-.04.04-.09.09-.13.13m12.46-34.38c-2.66,1.89-5.44,3.61-8.31,5.17v-24.61c.72-.36,1.4-.75,2.1-1.12.41-.21.81-.43,1.2-.65,1.61-.9,3.16-1.82,4.66-2.76.12-.08.24-.15.35-.22v24.2Zm-103.88-3.2v24.92c-5.7-.44-11.24-1.11-16.62-1.99v-24.89c2.25.36,4.54.68,6.85.96.6.07,1.2.15,1.8.22,2.33.27,4.68.51,7.06.71.13,0,.24.03.37.03l.54.04m-24.93-3.49v24.89c-4.31-.9-8.47-1.92-12.47-3.08v-24.89h0c1.42.41,2.87.79,4.33,1.17.28.07.56.15.84.22,2.16.54,4.37,1.04,6.61,1.52.23.05.46.11.69.16m-20.77-5.7v24.85c-2.89-1.02-5.66-2.11-8.31-3.26v-24.77c.09.04.18.07.27.11.46.19.93.38,1.4.57,1.65.67,3.33,1.31,5.05,1.93.31.11.61.23.93.34.22.08.44.15.66.23m-16.64-7.05v24.6c-2.87-1.55-5.65-3.28-8.31-5.17v-24.2h0c.12.07.24.15.35.22,1.5.95,3.05,1.87,4.65,2.77.39.22.8.43,1.2.65.69.38,1.38.75,2.1,1.12m-24.93-19.31c.07.08.15.16.21.24.92,1.15,1.91,2.28,2.97,3.4.24.25.48.49.73.74.93.95,1.92,1.89,2.95,2.81.24.22.48.44.73.66s.47.41.71.61v23.15c-5.34-5.72-8.31-11.97-8.31-18.47v-13.13Zm-12.47,73.15c-5.34-5.72-8.31-11.97-8.31-18.47v-13.13c.07.08.15.16.21.24.92,1.15,1.92,2.29,2.97,3.4.24.25.48.49.73.74.94.95,1.92,1.89,2.95,2.81.24.22.48.44.73.66s.47.42.71.61v23.15Zm-8.31-53.58c0-9.15,5.88-16.51,12.47-21.88v15.43c0,.96.05,1.91.14,2.86.03.32.09.63.13.94.08.63.16,1.26.27,1.88.07.37.17.74.26,1.11.13.56.25,1.12.41,1.67.11.39.25.78.38,1.17.17.52.34,1.04.54,1.55.15.4.33.8.5,1.2.21.49.43.99.66,1.48.2.4.41.79.62,1.19.26.48.52.96.79,1.43.23.39.48.79.73,1.18.29.47.6.93.91,1.39.27.39.56.78.85,1.17.34.45.68.9,1.03,1.34.31.38.63.77.95,1.15.38.44.76.87,1.16,1.31.34.37.69.74,1.05,1.11.42.43.85.85,1.28,1.28.38.36.75.72,1.14,1.08.46.41.93.83,1.4,1.24.41.35.81.7,1.23,1.05.49.41,1.01.81,1.53,1.21.43.34.86.68,1.31,1,.54.4,1.1.79,1.66,1.18.46.32.9.64,1.37.95.59.39,1.21.78,1.82,1.17.47.29.92.6,1.41.89.66.4,1.35.79,2.04,1.18.46.26.9.53,1.37.79.85.47,1.73.92,2.61,1.37.33.17.64.35.98.51,1.22.61,2.46,1.2,3.73,1.79.44.2.9.39,1.35.59.86.38,1.71.76,2.59,1.12.54.23,1.11.44,1.66.66.81.32,1.61.65,2.43.96.61.23,1.23.44,1.84.66.8.29,1.6.58,2.42.86.64.22,1.3.43,1.96.64.82.27,1.62.53,2.45.78.68.21,1.37.41,2.05.61.83.24,1.65.48,2.5.72.71.2,1.42.38,2.13.57.85.22,1.7.44,2.56.65.73.18,1.46.35,2.2.52.87.2,1.75.4,2.64.59.75.16,1.5.32,2.25.47.9.18,1.8.36,2.7.53.76.14,1.53.28,2.29.42.93.16,1.86.32,2.8.46.77.12,1.54.24,2.32.36.96.14,1.92.27,2.89.4.78.1,1.55.21,2.34.31,1,.12,2.01.23,3.01.34.77.08,1.54.17,2.32.24,1.04.1,2.09.19,3.14.27.77.06,1.54.13,2.31.19,1.09.08,2.2.14,3.3.2.73.04,1.47.09,2.21.13.16,0,.31.02.47.03-3.31.15-6.65.23-10.01.24-55.34,0-103.88-23.3-103.88-49.86m62.34,54.04v24.9l-.71-.15c-2.23-.47-4.42-.98-6.58-1.52-1.76-.45-3.48-.92-5.17-1.4v-24.89c1.42.41,2.87.79,4.32,1.17.28.07.56.15.84.23,2.16.54,4.37,1.04,6.61,1.51.23.05.46.11.69.16m-20.77-5.7v24.85c-2.89-1.02-5.66-2.11-8.31-3.27v-24.77c.09.04.18.07.27.11.46.2.92.39,1.4.58,1.64.67,3.33,1.31,5.04,1.93.31.11.61.23.93.34l.66.23m-17.17,16.61l-5.43-2.62c-.8-.53-1.58-1.06-2.34-1.6v-24.2c.12.07.24.14.36.22,1.5.95,3.05,1.87,4.65,2.77.4.22.8.44,1.2.65.69.38,1.39.76,2.1,1.12l-.54,23.66Zm8.86,50.95c-5.34-5.71-8.31-11.96-8.31-18.47v-13.13c2.48,3.08,5.26,5.9,8.31,8.42v23.18Zm16.62,12.32c-2.87-1.55-5.65-3.28-8.31-5.16v-24.2c2.59,1.65,5.39,3.21,8.31,4.72v24.65Zm16.62,7.3c-2.89-1.02-5.66-2.11-8.31-3.26v-24.79c2.67,1.13,5.44,2.19,8.31,3.19v24.87Zm20.78,5.74c-4.31-.9-8.47-1.92-12.47-3.08v-24.92c4.02,1.15,8.16,2.21,12.47,3.1v24.9Zm24.93,3.52c-5.7-.44-11.25-1.11-16.62-1.99v-24.91c.65.1,1.32.18,1.98.28.99.15,1.99.29,2.99.42,1.57.21,3.14.41,4.73.59s3.18.34,4.78.48c.71.06,1.42.13,2.14.19v24.93Zm24.93.47c-2.75.1-5.51.17-8.31.17s-5.56-.07-8.31-.17v-24.93c.2,0,.4,0,.6.01,2.55.09,5.12.15,7.71.15s5.19-.06,7.75-.15c.18,0,.38,0,.56-.01v24.93Zm24.93-2.46c-5.37.87-10.92,1.54-16.62,1.99v-24.92c.18-.02.36-.02.55-.04.12,0,.24-.02.37-.03,2.39-.2,4.73-.44,7.07-.71.6-.07,1.2-.14,1.8-.22,2.3-.29,4.59-.6,6.84-.96v24.9Zm20.77-4.61c-3.99,1.15-8.16,2.18-12.46,3.08v-24.9h0c.24-.05.46-.11.69-.16,2.23-.47,4.45-.97,6.6-1.52.28-.07.56-.15.84-.22,1.46-.38,2.91-.77,4.33-1.17v24.89Zm16.63-5.93c-2.65,1.15-5.42,2.24-8.31,3.27v-24.86h0c.23-.08.44-.15.66-.23.32-.11.62-.23.93-.34,1.72-.62,3.4-1.26,5.05-1.93.47-.19.94-.38,1.4-.57.09-.04.18-.08.28-.11v24.78Zm16.61-9.2c-2.66,1.89-5.44,3.61-8.31,5.16v-24.61h0c.72-.36,1.4-.75,2.1-1.12.4-.21.81-.43,1.2-.65,1.6-.9,3.16-1.82,4.66-2.77.12-.07.24-.14.35-.22v24.21Zm16.62-25.63c0,6.5-2.97,12.76-8.31,18.47v-23.15c.24-.2.47-.4.71-.61s.49-.44.73-.66c1.03-.92,2.02-1.86,2.95-2.81.24-.24.5-.49.73-.74,1.06-1.12,2.05-2.25,2.97-3.4.07-.09.15-.17.22-.25v13.13Zm-103.88,14.76c-2.39,0-4.76-.06-7.12-.15-.7-.02-1.4-.05-2.1-.08-2.06-.09-4.1-.22-6.13-.38-1.32-.1-2.63-.23-3.94-.36-.58-.05-1.15-.12-1.73-.17-34.18-3.68-63.26-16.01-75.98-31.58-.17-.21-.35-.41-.51-.62-.19-.24-.36-.5-.55-.74,6.19,2.62,12.55,4.8,19.04,6.54,18.44,12.13,47.14,19.08,79.03,19.08,56.32,0,95.57-21.82,95.57-41.41,0-5.77-3.51-11.52-10.17-16.75.11-.29.18-.6.28-.9.14-.43.29-.86.41-1.29.14-.5.26-1.01.38-1.51.1-.43.2-.87.29-1.31.09-.51.16-1.02.22-1.54.06-.44.12-.88.16-1.33.01-.13.04-.26.05-.39,8.6,5.82,16.7,14.18,16.7,25.02,0,26.57-48.54,49.86-103.88,49.86"/>
            <path id="Path_302" data-name="Path 302" class="cls-6" d="m383.55,346.67c52.19,0,93.07-18.21,93.07-41.47s-40.88-41.47-93.07-41.47-93.07,18.21-93.07,41.47,40.88,41.47,93.07,41.47m0-75.46c51.2,0,85.59,17.57,85.59,33.99s-34.39,33.99-85.59,33.99-85.59-17.58-85.59-33.99,34.39-33.99,85.59-33.99"/>
            <path id="Path_303" data-name="Path 303" class="cls-6" d="m349.83,308.72l31.56,22.24c1.76,1.19,4.07,1.17,5.82-.04l30.21-22.08,1.35-.92c.08-.06.17-.12.25-.19,3.85-2.97,5.97-6.8,5.97-10.79,0-9-10.8-16.31-24.07-16.31-8.88,0-13.98,3.42-17.41,6.83-.73-.62-1.55-1.25-2.43-1.87-3.68-2.57-7.99-4.96-14.55-4.96-13.27,0-24.07,7.32-24.07,16.31,0,4.49,2.61,8.67,7.37,11.78m16.7-20.62c3.54,0,5.83,1.13,8.81,3.22,1.75,1.23,3.35,2.68,4.75,4.3,1.9,2.01,5.06,2.1,7.07.2.07-.07.14-.13.2-.2l.5-.59c3.01-3.56,5.86-6.92,13.06-6.92,8.2,0,15.13,4.04,15.13,8.83,0,2.39-1.66,4.18-3.07,5.28l-1.28.88s-.07.05-.11.07l-27.38,20-28.67-20.21c-.05-.04-.11-.07-.17-.11l-.09-.05c-2.51-1.64-3.89-3.72-3.89-5.86,0-4.79,6.93-8.83,15.13-8.83"/>
            <path id="Path_305" data-name="Path 305" class="cls-6" d="m65.6,497.39c-63.38,0-114.95-54.55-114.95-121.59S2.22,254.2,65.6,254.2s114.95,54.55,114.95,121.59-51.56,121.6-114.95,121.6m0-232.52c-57.5,0-104.29,49.76-104.29,110.93s46.78,110.93,104.29,110.93,104.28-49.76,104.28-110.93-46.78-110.93-104.28-110.93"/>
            <path id="Path_306" data-name="Path 306" class="cls-6" d="m65.54,470.72c-49.52,0-89.8-42.58-89.8-94.92s40.28-94.92,89.8-94.92,89.8,42.58,89.8,94.92-40.28,94.92-89.8,94.92m0-179.18c-43.64,0-79.14,37.8-79.14,84.26s35.5,84.26,79.14,84.26,79.14-37.8,79.14-84.26-35.5-84.26-79.14-84.26"/>
            <path id="Path_307" data-name="Path 307" class="cls-6" d="m49.6,496.16c-69.81,0-124.49-52.87-124.49-120.36s54.68-120.36,124.49-120.36v10.66c-63.83,0-113.83,48.18-113.83,109.69s50,109.7,113.83,109.7v10.66Z"/>
          </g>
        </g>
      </g>
    </g>
  </g>
  <g>
    <circle id="Ellipse_20" data-name="Ellipse 20" class="cls-7" cx="205.88" cy="141.81" r="61"/>
    <g id="instagram-svgrepo-com">
      <path id="Path_287" data-name="Path 287" class="cls-5" d="m206.88,158.38c9.15,0,16.57-7.42,16.57-16.57s-7.42-16.57-16.57-16.57-16.57,7.42-16.57,16.57h0c0,9.15,7.42,16.57,16.57,16.57Zm0-5.52c6.1,0,11.05-4.95,11.05-11.04s-4.95-11.05-11.04-11.05-11.05,4.95-11.05,11.04h0c0,6.1,4.95,11.05,11.04,11.05Z"/>
      <path id="Path_288" data-name="Path 288" class="cls-4" d="m223.45,122.48c-1.52,0-2.76,1.24-2.76,2.76s1.24,2.76,2.76,2.76,2.76-1.24,2.76-2.76h0c0-1.52-1.24-2.76-2.76-2.76Z"/>
      <path id="Path_289" data-name="Path 289" class="cls-5" d="m178.31,120.48c-1.81,3.54-1.81,8.18-1.81,17.46v7.73c0,9.28,0,13.92,1.81,17.46,1.59,3.12,4.12,5.65,7.24,7.24,3.54,1.81,8.18,1.81,17.46,1.81h7.73c9.28,0,13.92,0,17.46-1.81,3.12-1.59,5.65-4.12,7.24-7.24,1.81-3.54,1.81-8.18,1.81-17.46v-7.73c0-9.28,0-13.92-1.81-17.46-1.59-3.12-4.12-5.65-7.24-7.24-3.54-1.81-8.18-1.81-17.46-1.81h-7.73c-9.28,0-13.92,0-17.46,1.81-3.12,1.59-5.65,4.12-7.24,7.24Zm32.43-3.52h-7.73c-4.73,0-7.95,0-10.43.21-1.56.03-3.1.37-4.52,1-2.08,1.06-3.77,2.75-4.83,4.83-.63,1.43-.97,2.96-1,4.52-.2,2.49-.21,5.7-.21,10.43v7.73c0,4.73,0,7.95.21,10.43.03,1.56.37,3.1,1,4.52,1.06,2.08,2.75,3.77,4.83,4.83,1.43.63,2.96.97,4.52,1,2.49.2,5.7.21,10.43.21h7.73c4.73,0,7.95,0,10.43-.21,1.56-.03,3.1-.37,4.52-1,2.08-1.06,3.77-2.75,4.83-4.83.63-1.43.97-2.96,1-4.52.2-2.49.21-5.7.21-10.43v-7.73c0-4.73,0-7.95-.21-10.43-.03-1.56-.37-3.1-1-4.52-1.06-2.08-2.75-3.77-4.83-4.83-1.43-.63-2.96-.97-4.52-1-2.48-.2-5.7-.2-10.43-.2Z"/>
    </g>
  </g>
</svg>