<?xml version="1.0" encoding="UTF-8"?>
<svg id="Layer_1" data-name="Layer 1" xmlns="http://www.w3.org/2000/svg" viewBox="0 0 576 576">
  <defs>
    <style>
      .cls-1 {
        fill: #8e351e;
      }
    </style>
  </defs>
  <path class="cls-1" d="m377.07,212.73c-7.3-6.1-8.07-8.91-4.85-17.14,6.26-16.01,12.51-32.02,18.86-48,6.02-15.14,20.64-21.55,35.99-15.86,4.63,1.72,9.22,3.52,13.84,5.28,13.61,5.19,20.82,19.6,15.82,33.26-6.53,17.82-13.67,35.43-20.71,53.06-2.18,5.45-6.84,7.33-13.81,6.18,7.56,6.61,8,8.5,4.25,18.2-1.08,2.79-2.02,5.64-3.25,8.36-3.23,7.17-8.8,11.42-16.69,11.66-3.39.11-5.34.88-5.89,4.29-.07.43-.37.82-.51,1.24-.71,2.12-2.45,4.62-1.85,6.26.81,2.21,3.89.68,5.96.99,4.73.71,9.31,5.06,8.45,9.98-1.83,10.45-2.47,21.33-9.16,30.47-2.83,3.86-1.85,8.97-2.49,13.5-2.21,15.57-4.1,31.19-6.09,46.79-1.93,15.16-3.82,30.32-5.72,45.47-.95,7.58-1.74,15.18-2.85,22.74-.76,5.18-5.11,8.76-10.4,8.76-58.63.03-117.25.02-175.88,0-5.47,0-9.48-3.06-10.36-8.65-1.7-10.8-2.97-21.68-4.35-32.53-2.26-17.69-4.45-35.38-6.7-53.07-1.66-13.08-3.36-26.15-5.03-39.23-.15-1.17.16-2.45-.74-3.44-7.6-8.44-7.29-19.61-9.88-29.69-1.51-5.88,3.85-10.99,10.11-11.09,7.06-.1,14.13-.08,21.2,0,2.22.03,2.89-.34,1.97-2.74-3.76-9.75-7.35-19.57-10.95-29.39-.54-1.47-1.01-2.18-2.88-1.66-4.54,1.26-8.2-.52-11.16-3.98-1.47-1.71-3-3.36-4.43-5.1-4.1-5.03-4.33-5.17-9.96-2.16-7.99,4.26-14.08,10.63-19.35,17.86-3.52,4.83-7.55,6.45-12.3,4.88-5.14-1.7-7.64-5.29-7.55-11.31.37-23.44,11.54-45.79,36.84-54.63,14.11-4.93,27.92-10.7,41.85-16.12,3.46-1.34,7.17-.48,10.44-1.06,2.8-.5,4.61-5.01,8.23-6.18,3.55-1.14,6.98-2.68,10.51-3.88,7.71-2.63,16.17.49,19.29,7.94,4.32,10.33,8.21,20.86,11.69,31.5,2.35,7.18-1.33,14.91-8.05,18.14-4.3,2.06-8.88,3.55-13.37,5.22-1.58.59-3.25.33-4.9.14-1.49-.17-2.86-2.65-4.56-.04-1.48,2.27-2.79,4.06-1.56,7.2,5.39,13.77,10.49,27.65,15.55,41.55,1,2.74,2.2,3.98,5.42,3.88,9.46-.28,18.94-.19,28.41-.04,2.8.04,3.9-.53,3.88-3.67-.13-24.2-.1-48.4-.02-72.61,0-2.4-.83-3.78-2.79-5.1-12.9-8.67-20.18-20.91-21.26-36.3-1.17-16.77,7.25-33.93,23.47-43.13,7.28-4.13,15.53,1,15.82,9.69.22,6.61.13,13.23,0,19.84-.04,2.27.57,3.65,2.87,4.29,3.4.96,5.92,4.15,10.33,2.61,6.56-2.28,9.61-5.85,8.49-13.13-.72-4.7-.21-9.6-.12-14.41.17-9,8.65-13.66,16.53-9.12,30,17.26,31.86,59.42,3.39,78.94-2.68,1.84-3.65,3.66-3.63,6.87.14,23.6.15,47.2,0,70.8-.02,3.51.85,4.61,4.43,4.45,6.75-.3,13.53-.16,20.29-.04,2.12.04,3.25-.64,3.97-2.67,2.51-7.03,5.08-14.05,7.84-20.99.67-1.68.22-2.27-1.03-3.24-9.17-7.13-10.93-13.75-6.72-24.76,1.12-2.93,2.22-5.87,3.4-8.77,2.62-6.41,6.8-8.65,14.42-7.38Zm-88.82,110.19c-33.21,0-66.42.01-99.62-.02-2.55,0-4.71-.34-4.12,3.59,1.41,9.48,2.43,19.01,3.66,28.51,3.83,29.56,7.75,59.1,11.4,88.68.39,3.19,1.34,3.85,4.31,3.85,56.05-.08,112.09-.08,168.14.02,2.89,0,3.94-.99,4.25-3.63.96-8.18,2-16.34,3.03-24.51,1.93-15.3,3.88-30.59,5.83-45.88,1.96-15.45,3.84-30.91,5.96-46.34.51-3.68-.65-4.37-4.12-4.36-32.91.13-65.81.08-98.72.08Zm36.42-193.9c0,5.84-.64,11.59.14,17.15,1.37,9.7-1.92,14.92-11.42,18.57-7.26,2.79-13.12,4.5-19.88-.13-2.68-1.84-5.89-2.96-8.95-4.18-2.12-.84-2.85-2.06-2.8-4.36.15-7.66.08-15.33.02-23,0-1.05.67-2.43-.82-3.15-24.08,16.05-22.35,48.77,3.42,62.48,2.99,1.59,3.81,3.25,3.8,6.48-.14,25.7-.02,51.41-.15,77.11-.02,3.38.62,4.74,4.37,4.59,7.65-.31,15.34-.29,22.99,0,3.64.14,4.48-1.04,4.46-4.53-.14-25.7.02-51.41-.19-77.11-.03-3.57,1.19-5.24,4.16-6.82,11.68-6.21,18.36-15.97,19.75-29.21,1.41-13.36-7.15-28.94-18.9-33.89Zm51.41,94.66c-2.85-1.21-3.83.89-4.69,3.33-.89,2.53-1.95,5-2.87,7.53-1.79,4.91-.11,8.87,4.84,10.79,9.73,3.78,19.5,7.48,29.3,11.08,4.75,1.74,8.59,0,10.63-4.66,1.19-2.73,1.96-5.66,3.23-8.34,1.07-2.25.91-3.47-1.35-5-4.45-3.02-5.77-8.38-3.81-13.1,1.93-4.64,6.8-7.68,11.93-6.81,2.29.39,3.08,0,3.89-2.11,6.29-16.31,12.8-32.53,19.05-48.85,3.32-8.68-.54-17.03-9.18-20.47-4.85-1.93-9.74-3.79-14.66-5.53-8.95-3.16-17.51.58-20.99,9.32-6.4,16.09-12.63,32.24-19.01,48.33-.75,1.88-.97,2.93,1.01,4.36,4.61,3.32,5.86,7.79,4.09,12.58-1.78,4.82-5.81,7.58-11.42,7.56Zm-88.48,67.49c-31.25,0-62.5,0-93.75,0-5.71,0-11.42.04-17.13-.01-2.16-.02-3.36.12-2.43,2.97,1.44,4.39,2.64,8.91,3.35,13.46.59,3.82,2.31,4.63,5.96,4.62,69.56-.12,139.13-.09,208.69-.09.75,0,1.51-.06,2.25,0,1.73.15,2.59-.33,2.98-2.31.93-4.68,1.96-9.39,3.52-13.88,1.49-4.29.03-4.87-3.93-4.86-36.51.13-73.02.08-109.53.08Zm-58.55-10.68c.18-2.02-.7-3.45-1.27-4.97-5.73-15.4-11.48-30.79-17.14-46.21-.42-1.15-2.2-3.01.25-3.71,5.87-1.68,5.71-6.03,5.15-10.64-.35-2.87.38-4.69,3.45-5.72,2.97-1,4.97-1.76,7.55,1.39,5.68,6.93,5.96,6.7,14.35,3.35.14-.06.28-.1.42-.16,4.62-1.89,5.6-4.05,3.85-8.78-2.91-7.84-5.9-15.66-8.82-23.5-2.69-7.21-4-7.8-11.3-4.98-8.13,3.14-8.02,3.13-7.13,11.55.22,2.06,1.7,4.69-1.87,6.03-3.03,1.14-5.45,1.93-7.54-1.48-1.08-1.77-2.83-3.11-4.11-4.77-1.5-1.94-3.01-2.29-5.41-1.34-15.42,6.11-30.96,11.92-46.35,18.08-14.62,5.85-24.93,23.69-24.31,42.11,1.83-2.18,3.38-4.12,5.02-5.97,7.37-8.3,15.66-15.17,26.74-18.12,4.4-1.17,7.79-1.01,10.35,3.24,1.07,1.77,2.7,3.21,4.07,4.81,4.79,5.61,4.87,5.8,11.52,2.92,3.49-1.51,4.77-.59,5.99,2.81,4.87,13.65,10.04,27.19,15.07,40.79.63,1.71.99,3.36,3.48,3.3,5.99-.14,11.98-.04,18-.04Zm148.85,0q7.99,0,10.8-7.5c.89-2.37,1.73-4.75,2.66-7.1.35-.87.86-1.85-.24-2.29-4.14-1.64-8.31-4.2-12.52-4.28-2.65-.05-2.6,5.03-3.9,7.74-.89,1.88-1.55,3.87-2.28,5.82q-2.86,7.6,5.47,7.6Z"/>
</svg>