<?xml version="1.0" encoding="UTF-8"?>
<svg id="Layer_1" data-name="Layer 1" xmlns="http://www.w3.org/2000/svg" viewBox="0 0 576 576">
  <defs>
    <style>
      .cls-1 {
        fill: #8e351e;
      }
    </style>
  </defs>
  <path class="cls-1" d="m342.62,186.84c4.03-3.54,8.07-7.08,12.1-10.63,0,0,5.49-2.58,11.98.4.94.4,1.88.81,2.82,1.21,7.62,5.93,8.66,12.73,5.14,20.98-1.53,3.58-4.54,6.57-7.11,9.64-6.98,8.38-14.08,16.64-21.1,24.98-.66.78-1.06,1.77-1.58,2.67-.25.21-.5.41-.75.62-5.54,6.53-11.08,13.06-16.62,19.59l-.8.52c.35.06.7.13,1.05.19,6.44,4.88,8.99,11.51,8.98,19.43-.03,65.12-.03,130.24,0,195.35,0,3.2-.6,5.88-3.9,7.19-3.73,1.48-7-.48-7.37-4.45-.11-1.24-.06-2.49-.06-3.74,0-56.26,0-112.52,0-168.78v-4.31h-74.58c0,1.35,0,2.79,0,4.23,0,56.39,0,112.77,0,169.16,0,2.62.14,5.22-2.4,7.05-3.81,2.74-8.46.82-9-3.85-.14-1.23-.05-2.49-.05-3.74,0-64.49.07-128.99-.1-193.48-.02-7.22,1.5-13.42,6.68-18.54.27-.2.55-.4.82-.59.1-.8.59-1.97.24-2.35-5.75-6.15-7.78-13.39-7.72-21.75.22-29.02.06-58.04.13-87.06.02-9.16,8-16.63,17.09-16.18,1.65.08,3.28.51,4.74.76.53-4.18.52-8.19,1.62-11.88,2.03-6.84,10.17-13.48,18.92-10.74.93.29,3.04-.41,3.25-1.08,1.94-6.03,6.43-9.24,11.89-11.53h8.23c5.99,2.26,10.13,6.44,12.72,12.23.27.33.54.65.8.98.23-.37.47-.74.7-1.1,5.52-.47,10.86.18,15.22,3.83,3.22,2.69,5.66,6.14,5.72,10.64.27,20.13.5,40.25.79,60.38.02,1.26.06,3.55.31,4.81m-26.55,76.53c-1.37.04-2.74.11-4.11.11-16.83.02-33.66.1-50.49-.02-4.58-.03-9.03,3.34-9.63,7.88-.59,4.49-.13,9.12-.13,13.7h74.87c0-2.27-.16-4.38.03-6.45.65-7.06-.85-12.91-8.25-15.72m20.91-38.31c4.55-5.48,9.11-10.96,13.66-16.44.68-.76,1.37-1.52,2.05-2.28,3.16-3.76,6.35-7.5,9.45-11.3.74-.9,1.5-1.97,1.73-3.07,1.05-4.91-2.77-5.08-5.93-5.85-1.01.25-1.44.63-2.13,1.53-4.89,4.72-9.53,9.74-14.8,13.98-1.8,1.45-5.71,2-7.69,1.01-2.12-1.05-4.23-4.33-4.37-6.76-.49-8.21-.12-16.46-.07-24.7.06-.7-.05-3,0-4.49-.29-10.48-.61-20.97-.85-31.45-.08-3.34-.73-6.96.3-9.96,1.41-4.13-1.49-4.55-3.62-5.66-1.2-.63-2.81-.48-4.23-.69l-1.62,1.07c-.55,2.38-1.4,4.75-1.43,7.14-.15,14.59-.05,29.18-.09,43.78-.01,3.99-2.61,6.99-5.82,7.01-3.89.03-5.69-2.1-5.75-6.93-.05-4.24-.01-8.48-.01-12.72,0-15.09.02-30.18-.02-45.27,0-4.01-1.54-5.5-5.28-5.44-3.97.06-5.6,1.72-5.61,6.01-.03,18.83,0,37.66-.02,56.5,0,4.9-2.5,7.96-6.31,7.86-3.51-.09-5.26-2.68-5.26-7.84,0-9.73,0-19.46,0-29.18,0-5.11.04-10.23-.01-15.34-.04-4.24-1.57-5.96-5.18-6.02-4.49-.08-5.53.92-5.75,5.58-.08,1.58.05,3.16-.07,4.73-1.02,13.11-1.57,26.29-.05,39.36.62,5.3-1.94,8.67-6.12,8.72-3.46.04-5.28-2.3-5.3-6.93-.03-7.73.03-15.47-.03-23.2-.03-4.27-1.48-5.75-5.36-5.81-4.75-.06-5.65.94-5.65,6.82,0,29.18.03,58.37.02,87.55,0,1.2-.91,2.7-.46,3.57,3.7,7.09,7.53,12.85,18.64,12.77,12.72-.1,25.45.18,38.16-.12,3.05-.07,6.05-1.81,9.08-2.79l.85-.55c6.3-7.3,12.61-14.6,18.91-21.91.68-.76,1.37-1.52,2.05-2.28Z"/>
  <path class="cls-1" d="m359.69,409.02c.04,21.33.09,42.65.09,63.98,0,3.19-3.24,6.41-6.14,6.35-3.54-.07-5.14-1.81-5.14-6.13,0-30.56-.12-61.12.35-91.67.06-3.77,2.6-8.27,5.38-11.03,2.89-2.88.8-3.69-.31-5.68-2.27-4.05-4.24-7.09-4.87-13.01-.1-2.61-.55-3.77-.55-5.66-.04-26.57-.02-53.14-.03-79.71,0-9.18,3.45-15.2,10.61-17.11,3.25-.86,6.8-.55,10.26-.77.23-3.21-.09-6.53.78-9.51,2.56-8.78,9.37-12.97,18.79-11.89,1.76.2,2.38.25,3.32-1.74,4.29-9.08,13.27-11.82,22.78-8.2,5.09,1.94,6.1,6.44,8.42,10.22,10.4-1.76,18.66,1.98,21.36,12.42.3,1.17.37,2.44.37,3.66.02,16.59-.01,33.18.05,49.77.03,7.42,1.27,7.1,6.25,3.06.89-.72,1.81-1.42,2.77-2.06,2.85-1.91,6.02-3.32,9.53-3.32,4.73,0,9.18,2.66,12.24,6.27,2.63,3.1,4.42,7.17,3.77,11.18-.59,3.61-3.02,6.61-5.36,9.42,0,1.83-5.73,6.88-6.99,8.39-2.75,3.31-5.51,6.61-8.26,9.92-4.76,5.71-9.54,11.41-14.43,17.01-4.07,4.67-9.54,9.32-12.77,14.56,3.99,4.78,10.65,9.68,9.24,16.85-.2,1.03-.59,2-.84,3.02-.41,1.7-.42,3.47-.42,5.22,0,24.46,0,48.93,0,73.39,0,1.36,0,2.73.28,4.06.2.95.54,1.87.66,2.84.24,2-.62,4.13-2.26,5.3s-4.02,1.26-5.68.12c-2.47-1.7-2.72-5.18-2.73-8.17-.09-27.36-.11-54.73-.02-82.09.03-9.2-4.59-12.46-12.07-12.31-16.08.3-32.17.23-48.26.03-6.88-.08-9.91,3.35-10.71,9.79-.41,3.29-.07,6.68-.07,10.39,1.48,0,2.68,0,3.89,0,15.21,0,30.43-.03,45.64.04,2.03,0,4.08.5,6.09.89,3.43.67,4.38,3.42,3.32,5.98-.77,1.85-3.29,4.18-5.07,4.21-17.45.28-34.91.12-52.36.08m-.87-56c.21.98.43,1.95.64,2.93.18.46.36.93.54,1.39,1.88,2.08,3.76,4.16,5.63,6.24,2.99,3.31,6.96,2.76,10.84,2.53,4.78-.27,9.57-.26,14.35.06,8.98.59,18.44,2.13,26.63-1.6,5.94-2.71,10.36-7.85,14.58-12.84,10.71-12.66,21.42-25.32,32.13-37.99,1.23-1.46,2.51-2.99,2.95-4.85s-.24-4.14-2.01-4.87c-2.15-.9-4.43.8-6.14,2.38-3.13,2.9-6.26,5.79-9.39,8.69-3.37,3.12-8.01,6.47-12.13,4.43-3.77-1.86-4.31-6.93-4.34-11.14-.12-19.71-.11-39.43.02-59.14.01-1.9.02-3.86-.7-5.63s-2.35-3.29-4.26-3.29c-1.89,0-3.51,1.52-4.23,3.27s-.73,3.69-.73,5.58c0,12,.01,24,.02,36,0,2.45-.02,4.99-1.04,7.21s-3.36,4.05-5.78,3.66c-1.98-.31-3.52-2.03-4.21-3.91s-.69-3.95-.68-5.95c.07-15.64.15-31.27.22-46.91.01-2.84-.03-5.87-1.62-8.22s-5.35-3.42-7.28-1.34c-1.21,1.3-1.27,3.26-1.27,5.03.03,16.57.07,33.15.1,49.72,0,2.89-.03,5.93-1.48,8.43s-4.85,4.11-7.33,2.62c-2.42-1.45-2.68-4.79-2.68-7.61.03-13.09.06-26.17.1-39.26,0-1.82,0-3.7-.66-5.4s-2.13-3.21-3.95-3.37c-2.03-.17-3.88,1.4-4.69,3.27s-.82,3.97-.81,6.01c.06,12.06.12,24.11.18,36.17.01,2.34,0,4.76-.9,6.91s-2.96,4.01-5.3,3.93c-2.28-.08-4.17-1.97-4.97-4.1s-.74-4.48-.66-6.76c.15-4.69.31-9.37.46-14.06.07-2.13.13-4.33-.69-6.3s-2.78-3.62-4.89-3.39c-3.61.4-4.55,5.15-4.55,8.78,0,26.8-.05,53.6-.06,80.41"/>
  <path class="cls-1" d="m214.61,407.37c-21.22.04-42.43.08-63.65.12-1.48,0-2.96.08-4.44.12l-.63.65c-.04,20.89-.05,41.78-.15,62.67,0,2.05-.5,4.09-.76,6.14-1.88,3.54-4.68,3.18-7.25,1.95,0,0-2.1.45-1.77-8.65.48-13.18-.09-26.37-.12-39.56-.01-6.3,0-12.59-.09-18.88s.63-12.74.24-19.11c-.11-1.77-.3-3.54-.61-5.29-.16-.87-.4-1.71-.46-2.57-.11-1.69.13-5.66.79-7.75.95-2.96,2.05-4.09,4.16-6.36.94-1.01,2.72-2.04,2.71-3.62s-1.73-2.87-2.67-3.86c-5.82-6.13-11.34-12.55-16.86-18.96-4.13-4.8-8.12-9.7-12.12-14.6s-8.48-9.59-12.15-14.79c-3.3-4.67-3.45-10-1.13-15.31,5.2-10.81,19.45-10.62,25.68-3.33.79.93,1.67,1.95,2.74,2.44,2.04.95,3.93-.8,3.93-3.48,0-16.72-.17-33.44.08-50.15.13-8.79,3.79-15.19,11.87-17.61,2.4-.72,5.39-1.03,7.65-.23,2.93,1.03,2.85-.68,3.72-2.28,2.72-5.02,6.34-8.8,12.61-9.24,7.61-.54,13.7,1.96,16.95,8.94,1.23,2.65,2.68,2.47,4.56,2.31,7.38-.66,13.28,2.22,16.47,8.65,1.81,3.66,1.66,8.29,2.54,13.3,2.65,0,6.22-.65,9.45.13,7.26,1.75,11.49,8.29,11.54,16.99.08,13.72.02,27.45.02,41.17,0,13.47,0,26.95,0,40.42,0,6.24-1.83,13.2-5.88,18.06-1.24,1.48-1.85,1.4-1.03,3.22.74,1.64,1.74,3.16,2.68,4.69,1.78,2.91,3.65,5.92,4.07,9.38.12,1,.12,2,.11,3-.11,26.06.02,52.13.03,78.19,0,2.76,0,5.52,0,8.28,0,4.37-2.33,6.86-6,6.77-3.69-.09-5.29-2.07-5.3-6.74-.05-21.7-.07-43.4-.1-65.09m-31.25-120.53c-.29,1.17-.4,2.43-.92,3.49-1.17,2.4-2.81,4.66-5.87,3.89-2.73-.69-4.91-2.28-4.59-5.72.15-1.61.03-3.24.03-4.86,0-16.34.08-32.69-.09-49.03-.02-2.28-.75-4.98-2.15-6.65-.9-1.08-4.14-1.44-5.39-.64-1.35.86-2.25,3.43-2.26,5.27-.16,17.46-.1,34.93-.1,52.39,0,1,.07,2-.03,2.99-.37,3.55-3.53,6.61-6.52,6.37-3.22-.26-5.03-2.7-5.03-6.8,0-10.73,0-21.46,0-32.19,0-3.99-.03-7.98,0-11.98.03-3.39-2.19-4.93-5-5.1-2.32-.15-4.57.91-4.94,3.85-.18,1.43-.65,2.85-.65,4.27-.03,21.21,0,42.41,0,63.62,0,5.18-4.61,9.42-9.46,8.13-2.33-.62-4.48-2.44-6.34-4.12-3.61-3.25-6.73-7.08-10.54-10.06-.45-.35-1.03-.52-1.69-.59-2.82-.32-5.31,2.16-4.74,4.94.08.38.21.71.42.98,6.21,7.93,12.82,15.55,19.29,23.28,6.14,7.35,12.49,14.55,18.34,22.13,5.14,6.67,11.07,10.53,19.94,10.08,10.58-.54,21.2-.12,31.8-.13,11.32-.01,17.86-6.48,17.86-17.63,0-26.45,0-52.89,0-79.34,0-.87.08-1.75-.02-2.62-.26-2.38-4.2-5.53-6.51-5.14-2.71.46-3.37,2.41-3.36,4.85.02,7.48.09,14.97-.04,22.45-.07,4.13-3.04,7.23-6.39,7.11-2.82-.1-5.15-3.5-5.14-7.35.02-13.97.01-27.94,0-41.92,0-3.89-2.46-6.91-5.54-6.91-3.03,0-4.52,2.26-4.46,6.78,0,.25.07.49.11.74,0,13.72,0,27.45,0,41.17Zm-39.05,108.95h70.37c0-3.72.05-7.2-.01-10.68-.1-5.24-3.9-9.15-9.22-9.17-17.59-.07-35.18-.06-52.77.02-4.84.02-8.28,3.6-8.36,8.37-.06,3.73-.01,7.47-.01,11.46Z"/>
</svg>