<?xml version="1.0" encoding="UTF-8"?>
<svg id="Layer_1" data-name="Layer 1" xmlns="http://www.w3.org/2000/svg" viewBox="0 0 576 121.06">
  <defs>
    <style>
      .cls-1, .cls-2 {
        fill: #231f20;
      }

      .cls-3 {
        letter-spacing: 0em;
      }

      .cls-4 {
        letter-spacing: -.02em;
      }

      .cls-5 {
        letter-spacing: 0em;
      }

      .cls-6 {
        letter-spacing: 0em;
      }

      .cls-2 {
        font-family: Nunito-Bold, Nunito;
        font-size: 41.21px;
        font-weight: 700;
      }

      .cls-7 {
        letter-spacing: -.03em;
      }
    </style>
  </defs>
  <text class="cls-2" transform="translate(147.19 72.43)"><tspan x="0" y="0">PENNY P</tspan><tspan class="cls-5" x="177.06" y="0">R</tspan><tspan class="cls-7" x="205.49" y="0">O</tspan><tspan x="236.23" y="0">J</tspan><tspan class="cls-3" x="250.98" y="0">E</tspan><tspan class="cls-6" x="275.17" y="0">C</tspan><tspan class="cls-4" x="302.7" y="0">T</tspan><tspan x="327.05" y="0">S</tspan></text>
  <g>
    <path class="cls-1" d="m110.2,75.79c-.37,0-.73-.16-.98-.44l-10.94-12.43c-1.5-1.58-2.32-3.64-2.32-5.83,0-4.59,3.63-8.32,8.09-8.32,2.29,0,3.77,1.31,5.02,2.72.32.36.61.73.87,1.08,1.15-1.88,2.9-3.8,6.02-3.8,4.46,0,8.09,3.73,8.09,8.32,0,1.94-.66,3.82-1.86,5.31-.02.03-.04.05-.07.08l-.48.54-10.46,12.32c-.24.29-.6.45-.98.46h-.01Zm-6.14-24.41c-3.03,0-5.49,2.56-5.49,5.72,0,1.52.56,2.95,1.59,4.02l.03.03s.03.03.05.05l9.95,11.3,9.51-11.2.48-.53c.83-1.03,1.29-2.33,1.29-3.68,0-3.15-2.46-5.72-5.49-5.72-2.33,0-3.39,1.68-4.63,4.05l-.17.33c-.22.43-.67.69-1.15.69h0c-.48,0-.92-.27-1.15-.69-.49-.93-1.11-1.83-1.73-2.53-1.04-1.17-1.87-1.84-3.07-1.84Zm17.11,10.23h0,0Z"/>
    <path class="cls-1" d="m109.73,90.18c-15.46,0-28.03-13.3-28.03-29.65s12.57-29.65,28.03-29.65,28.03,13.3,28.03,29.65-12.57,29.65-28.03,29.65Zm0-56.7c-14.02,0-25.43,12.13-25.43,27.05s11.41,27.05,25.43,27.05,25.43-12.13,25.43-27.05-11.41-27.05-25.43-27.05Z"/>
    <path class="cls-1" d="m109.71,83.68c-12.07,0-21.9-10.38-21.9-23.15s9.82-23.15,21.9-23.15,21.9,10.38,21.9,23.15-9.82,23.15-21.9,23.15Zm0-43.69c-10.64,0-19.3,9.22-19.3,20.55s8.66,20.55,19.3,20.55,19.3-9.22,19.3-20.55-8.66-20.55-19.3-20.55Z"/>
    <path class="cls-1" d="m105.82,89.88c-17.02,0-30.36-12.89-30.36-29.35s13.33-29.35,30.36-29.35v2.6c-15.56,0-27.76,11.75-27.76,26.75s12.19,26.75,27.76,26.75v2.6Z"/>
    <rect class="cls-1" x="76.77" y="58.5" width="6.23" height="2.6"/>
    <rect class="cls-1" x="78.4" y="49.86" width="6.16" height="2.6"/>
    <rect class="cls-1" x="83" y="41.21" width="6.16" height="2.6"/>
    <rect class="cls-1" x="78.04" y="67.15" width="6.16" height="2.6"/>
    <rect class="cls-1" x="82" y="75.79" width="6.16" height="2.6"/>
  </g>
</svg>