<?xml version="1.0" encoding="UTF-8"?>
<svg id="Layer_1" data-name="Layer 1" xmlns="http://www.w3.org/2000/svg" viewBox="0 0 576 576">
  <defs>
    <style>
      .cls-1 {
        fill: #8e351e;
      }
    </style>
  </defs>
  <path class="cls-1" d="m346.95,118.11h-117.9c-23.22,0-42.04,18.82-42.04,42.04v252.24c0,23.22,18.82,42.04,42.04,42.04h117.9c23.22,0,42.04-18.82,42.04-42.04v-252.24c0-23.22-18.82-42.04-42.04-42.04Zm-35.9,26.85h-45.13l-.07-10.03h45.2v10.03Zm61.13,267.43c0,13.93-11.29,25.22-25.22,25.22h-117.9c-13.93,0-25.22-11.29-25.22-25.22v-252.24c0-13.93,11.29-25.22,25.22-25.22h24.39l.11,16.28c.02,3.41,2.79,6.17,6.21,6.17h57.51c1.65,0,3.23-.65,4.39-1.82,1.16-1.16,1.82-2.74,1.82-4.39v-16.24s23.49,0,23.49,0c13.93,0,25.22,11.29,25.22,25.22v252.24Z"/>
  <circle class="cls-1" cx="287.9" cy="403.98" r="16.82"/>
</svg>