<?xml version="1.0" standalone="no"?>
<!DOCTYPE svg PUBLIC "-//W3C//DTD SVG 20010904//EN"
 "http://www.w3.org/TR/2001/REC-SVG-20010904/DTD/svg10.dtd">
<svg version="1.0" xmlns="http://www.w3.org/2000/svg"
 width="1215.000000pt" height="1215.000000pt" viewBox="0 0 1215.000000 1215.000000"
 preserveAspectRatio="xMidYMid meet">
<metadata>
Created by potrace 1.14, written by Peter Selinger 2001-2017
</metadata>
<g transform="translate(0.000000,1215.000000) scale(0.100000,-0.100000)"
fill="#000000" stroke="none">
<path d="M6295 10994 c-27 -2 -135 -13 -240 -23 -104 -11 -264 -23 -355 -26
-1025 -36 -2041 -393 -2850 -999 -369 -277 -734 -647 -1001 -1014 -498 -684
-792 -1455 -885 -2322 -26 -233 -26 -749 -1 -980 110 -1008 485 -1882 1128
-2631 606 -707 1446 -1243 2359 -1506 421 -121 798 -182 1261 -203 123 -6 280
-17 349 -25 1218 -143 2402 213 3380 1017 250 206 566 541 775 823 767 1030
1107 2347 945 3656 -179 1440 -966 2729 -2140 3504 -588 388 -1243 627 -1950
711 -128 15 -652 27 -775 18z m790 -453 c1059 -145 1995 -681 2680 -1534 832
-1035 1172 -2403 929 -3737 -75 -413 -225 -862 -411 -1234 -958 -1914 -3060
-2822 -4988 -2155 -451 156 -849 377 -1245 693 -166 132 -509 476 -644 646
-464 584 -772 1243 -920 1975 -134 663 -119 1380 45 2044 250 1015 826 1900
1637 2515 595 450 1289 723 2037 801 196 21 685 13 880 -14z m-3285 -525 c-8
-7 -64 -55 -125 -106 -132 -112 -423 -404 -520 -523 l-70 -86 -165 0 -165 0
60 56 c234 218 620 484 940 647 58 29 65 31 45 12z m-1067 -1203 c-132 -206
-302 -539 -399 -785 l-59 -148 -267 0 c-148 0 -268 2 -268 5 0 15 138 286 200
395 95 164 181 294 303 457 l100 133 213 0 214 0 -37 -57z m-598 -1380 c-15
-39 -76 -328 -100 -473 -14 -85 -34 -234 -43 -330 l-18 -175 -297 -3 c-163 -1
-297 1 -297 5 1 36 34 302 51 398 28 166 53 275 100 448 l41 147 285 0 c268 0
285 -1 278 -17z m-165 -1491 c0 -209 58 -697 105 -885 l7 -27 -290 0 -290 0
-5 23 c-48 225 -69 338 -86 462 -21 150 -41 381 -41 462 l0 43 300 0 300 0 0
-78z m274 -1497 c77 -221 156 -405 270 -630 55 -109 103 -203 104 -207 2 -5
-99 -7 -225 -6 l-228 3 -58 85 c-149 217 -323 543 -421 789 -26 62 -46 115
-46 117 0 3 124 3 276 2 l276 -3 52 -150z m651 -1273 c6 -4 43 -50 82 -102
214 -284 511 -592 808 -838 l40 -33 -75 37 c-256 125 -585 345 -845 563 -102
86 -385 360 -385 373 0 10 361 11 375 0z"/>
<path d="M6340 9924 c-25 -2 -103 -11 -173 -19 -934 -110 -1808 -621 -2402
-1405 -718 -949 -963 -2180 -670 -3366 177 -714 563 -1369 1109 -1882 549
-516 1273 -850 2008 -927 191 -20 545 -20 736 0 1677 175 3034 1595 3216 3368
71 686 -28 1363 -290 1981 -351 825 -969 1494 -1743 1885 -361 182 -724 293
-1132 346 -118 16 -556 28 -659 19z m670 -453 c680 -104 1287 -420 1777 -925
1034 -1064 1269 -2725 575 -4060 -330 -634 -859 -1156 -1468 -1448 -427 -204
-844 -300 -1309 -301 -373 0 -696 57 -1045 185 -598 220 -1141 648 -1522 1200
-321 463 -523 1006 -594 1598 -21 175 -24 580 -6 745 82 722 326 1320 760
1865 100 124 351 375 477 477 478 383 1017 610 1609 678 177 21 569 13 746
-14z"/>
<path d="M5418 8035 c-251 -47 -484 -167 -671 -344 -120 -115 -205 -231 -282
-386 -103 -207 -145 -387 -145 -622 0 -285 74 -536 228 -769 74 -111 1967
-2264 2009 -2283 77 -37 170 -31 229 14 18 14 409 469 870 1012 461 544 871
1025 912 1070 187 212 293 417 349 676 25 116 25 448 0 564 -56 259 -178 491
-357 677 -182 189 -381 306 -631 371 -139 36 -387 46 -523 21 -291 -55 -534
-228 -729 -517 -28 -43 -55 -78 -58 -79 -3 0 -34 37 -70 82 -92 118 -271 294
-361 356 -91 62 -219 125 -303 148 -83 23 -362 28 -467 9z m301 -415 c35 -6
91 -23 125 -39 164 -74 404 -337 558 -609 29 -52 70 -109 90 -127 65 -60 153
-71 235 -30 58 29 72 48 167 225 98 182 190 315 276 400 147 146 319 204 533
180 361 -41 668 -306 772 -667 80 -275 34 -574 -123 -800 -31 -46 -309 -378
-617 -739 -308 -362 -675 -793 -815 -958 -140 -165 -259 -299 -263 -298 -11 2
-1702 1924 -1741 1979 -50 71 -102 181 -133 280 -24 80 -27 103 -27 258 -1
148 2 181 22 254 102 372 405 644 767 690 98 12 103 12 174 1z"/>
</g>
</svg>
