<?xml version="1.0" encoding="UTF-8"?>
<svg id="Layer_1" data-name="Layer 1" xmlns="http://www.w3.org/2000/svg" viewBox="0 0 576 576">
  <defs>
    <style>
      .cls-1 {
        fill: #8e351e;
      }
    </style>
  </defs>
  <path class="cls-1" d="m347.24,205.6c8.7-8.77,13.5-20.4,13.5-32.76s-4.79-23.99-13.49-32.76c-8.66-8.73-20.68-13.74-32.97-13.74-10.38,0-20.56,3.57-28.69,9.93-8.15-6.44-18.16-9.93-28.71-9.93h0c-12.47,0-24.18,4.88-32.97,13.73-17.92,18.06-17.92,47.46,0,65.52l48.63,49.01c3.54,3.56,8.28,5.36,13.03,5.36,4.5,0,9.01-1.61,12.52-4.85,11.43-10.7,22.46-22.09,33.13-33.11,5.24-5.41,10.66-11.01,16.03-16.41Zm-60.73,37.07c-.5.46-1.43.45-1.91-.03l-48.63-49.01c-11.37-11.46-11.37-30.11,0-41.57,5.57-5.62,13-8.71,20.9-8.71s15.33,3.09,20.9,8.71l1.77,1.78c1.6,1.61,3.77,2.51,6.03,2.51h0c2.27,0,4.44-.9,6.03-2.51l1.77-1.78c5.49-5.54,13.11-8.71,20.9-8.71s15.41,3.17,20.9,8.71c5.52,5.56,8.56,12.94,8.56,20.79s-3.04,15.22-8.56,20.79c-5.44,5.48-10.89,11.11-16.17,16.56-10.53,10.87-21.41,22.11-32.5,32.48Z"/>
  <path class="cls-1" d="m427.23,209.68c-18.47,0-33.5,15.03-33.5,33.5v52.93c-16.04-7.78-35.2-4.58-47.83,8.05l-14.92,14.92c-7.9,7.9-12.25,18.41-12.25,29.58v52.86c0,4.69,3.81,8.5,8.5,8.5s8.5-3.81,8.5-8.5v-52.86c0-6.63,2.58-12.87,7.27-17.56l14.92-14.92c7.57-7.57,19.09-9.44,28.67-4.65l6.85,3.43-13.88,13.88c-3.32,3.32-3.32,8.7,0,12.02,3.32,3.32,8.7,3.32,12.02,0l14.3-14.3c.46-.46.89-.96,1.29-1.46,2.16-1.54,3.57-4.06,3.57-6.91v-75c0-9.1,7.4-16.5,16.5-16.5s16.5,7.4,16.5,16.5v87.53c0,.39-.16.78-.44,1.06l-63.74,63.74c-3.32,3.32-3.32,8.7,0,12.02,1.66,1.66,3.83,2.49,6.01,2.49s4.35-.83,6.01-2.49l63.74-63.74c3.49-3.49,5.42-8.14,5.42-13.08v-87.53c0-18.47-15.03-33.5-33.5-33.5Z"/>
  <path class="cls-1" d="m225.23,304.15c-12.63-12.63-31.79-15.83-47.83-8.05v-52.93c0-18.47-15.03-33.5-33.5-33.5s-33.5,15.03-33.5,33.5v87.53c0,4.94,1.92,9.59,5.42,13.08l63.74,63.74c1.66,1.66,3.83,2.49,6.01,2.49s4.35-.83,6.01-2.49c3.32-3.32,3.32-8.7,0-12.02l-63.74-63.74c-.28-.28-.44-.67-.44-1.06v-87.53c0-9.1,7.4-16.5,16.5-16.5s16.5,7.4,16.5,16.5v75c0,2.85,1.41,5.37,3.57,6.91.4.51.82,1,1.29,1.46l14.3,14.3c3.32,3.32,8.7,3.32,12.02,0,3.32-3.32,3.32-8.7,0-12.02l-13.88-13.88,6.85-3.43c9.57-4.79,21.09-2.92,28.67,4.65l14.91,14.91c4.69,4.69,7.27,10.93,7.27,17.56v52.86c0,4.69,3.81,8.5,8.5,8.5s8.5-3.81,8.5-8.5v-52.86c0-11.17-4.35-21.68-12.25-29.58l-14.92-14.92Z"/>
</svg>