<?xml version="1.0" encoding="UTF-8"?>
<svg id="Layer_1" data-name="Layer 1" xmlns="http://www.w3.org/2000/svg" viewBox="0 0 576 576">
  <defs>
    <style>
      .cls-1 {
        fill: #8e351e;
      }
    </style>
  </defs>
  <g>
    <path class="cls-1" d="m189.56,435.95c-1.31,3.71-2.11,6.26-3.09,8.74-2.75,6.95-9.67,11.06-16.35,9.79-7.54-1.43-12.36-7.17-12.21-15.06.08-4.34.01-8.91,1.3-12.96,3.65-11.51-1.15-22.14-2.56-33.12-.29-2.27-1.76-2.85-3.86-2.85-14.18.05-28.36.08-42.54,0-2.84-.02-3.53,1.28-4.01,3.84-3.42,18.16-7.04,36.28-10.59,54.41-.14.71-.1,1.47-.33,2.15-.66,1.91-1.39,4.14-3.96,3.59-2.6-.55-3.1-2.58-2.6-5.09,2.2-11.02,4.33-22.05,6.45-33.09,1.44-7.47,2.69-14.99,4.3-22.42.53-2.45,0-3.05-2.39-3.51-8.45-1.61-12.06-6.36-11.33-14.35.62-6.81,6.05-10.97,14.28-10.98,5.09,0,10.17-.06,15.26-.11.35,0,.71-.14,1.06-.22.72-.95.1-1.66-.41-2.41-5.35-7.74-7.86-16.24-6.97-25.69,1.55-16.64,3.47-33.21,10.63-48.61,6.86-14.77,16.57-26.8,33.01-32.78-5.31-6.68-8.19-13.79-7.94-22.13.42-14.43,11.96-27.67,25.88-29.23,17.22-1.94,30.88,7.25,34.82,23.44,3.53,14.49-4.63,30.11-18.61,35.36-3.02,1.13-7.53.89-8.94,2.94-1.36,1.98.39,6.11.76,9.29.06.54.02,1.09.02,1.64-.06,9.16.18,9.5,9.59,9.05,8.22-.4,16.07-2.5,23.64-5.77,2.02-.87,3.26-2.01,3.59-4.26,2.48-16.88,10.99-23.93,25.31-27.35-5.48-9.36-7.3-19.13-3.34-29.48,2.43-6.34,6.56-11.27,12.28-14.83,11.63-7.23,27.6-5.74,37.37,3.51,9.86,9.33,13.63,25.22,4.05,40.88,12.75,2.32,21.23,9.41,24.56,22.02,1.79,6.78,1.79,13.73,1.17,20.59-1.11,12.17-3.95,23.93-9.6,34.91-2.92,5.68-7.13,10.33-12.09,15.29,11.85.39,17.18,6.75,20.07,17.04,7.15,25.44,15,50.69,22.56,76.02.35,1.19.58,2.43,1.75,3.24,4.61-10.66,9.07-21.35,13.87-31.89,1.4-3.07,1.32-5.65.32-8.75-1.21-3.76-2.78-7.46-2.91-11.56-.23-7.75,2.55-13.86,9.36-17.76,2.58-1.48,4.01-3.13,4.04-6.35.02-2.98,2.03-5.32,4.16-7.41,10.1-9.93,16.09-22.2,20.34-35.52.83-2.62-.1-4.64-1.05-6.74-3.29-7.26-6.79-14.43-8.85-22.18-1.8-6.73-2.76-13.58-.92-20.4.85-3.15.1-3.73-2.94-4.4-16.5-3.62-26.4-16.56-25.29-32.47.92-13.11,9.44-23.66,22.1-27.38,12.04-3.54,25.25.87,33.07,11.04,7.61,9.88,8.27,24.03,1.6,34.73-.94,1.51-2,2.95-3.12,4.58,27.73,12.16,36.9,36.36,41.17,63.48,1.57,9.97,3.78,20.03,1.35,30.27-1.34,5.66-4.06,10.67-7.64,16.34,6.6,0,12.34-.03,18.08,0,7.67.05,13.05,4.47,13.6,11.13.65,7.8-3,12.8-10.92,14.13-3.12.52-3.14,1.57-2.6,4.28,3.56,17.95,6.84,35.96,10.34,53.93.54,2.78.89,5.42-2.51,5.94-3.17.49-3.6-2.42-4.06-4.72-3.59-18.31-7.29-36.61-10.58-54.97-.66-3.65-2.21-4.29-5.36-4.27-13.45.1-26.91.11-40.36-.01-3.05-.03-4.61.76-5.08,4.07-.74,5.19-1.64,10.42-3.13,15.44-2.14,7.25,1.17,13.94,1.45,20.92.11,2.71.67,5.41.71,8.12.11,7.77-3.61,12.84-10.83,15.03-6.31,1.91-12.79-.8-16.74-7.01-.55-.86-1.03-1.77-1.59-2.74-11.02,14.2-22.1,13.87-29.1-.63-6.57,13.33-17.66,14.81-26.39,3.41-.44.23-1.07.36-1.32.74-3.27,5.08-8.01,7.55-13.88,6.62-5.8-.91-9.41-4.64-11.49-10.31-6.06-16.48-12.5-32.83-18.62-49.29-1.18-3.18-2.8-4.59-6.33-4.4-5.26.29-10.55.32-15.81,0-3.66-.23-5.14,1.17-5.78,4.62-3.3,17.82-6.75,35.6-10.14,53.4-.14.71-.13,1.46-.34,2.15-.66,2.12-1.42,4.53-4.27,3.87-2.58-.6-3-2.68-2.49-5.18,2.29-11.36,4.5-22.74,6.69-34.12,1.37-7.11,2.57-14.26,4.04-21.35.5-2.39-.06-3.24-2.51-3.44-5.72-.47-9.4-3.78-10.83-9.19-1.54-5.86.35-10.77,5.36-14.28,1.25-.88,2.65-1.32,1.18-3.16-6.53-8.17-4.84-16.77-.58-25.01,2.35-4.54,2.33-7.91-.61-12.17-4.04-5.85-5.98-12.79-7.45-19.72-.66-3.13-1.75-3.76-4.66-2.55-13.23,5.49-26.93,7.07-41.04,4.4-2.22-.42-3.21.35-4.12,2.33-5.01,10.98-6.67,22.51-6.18,34.47.11,2.55,1.96,3.21,3.64,4.2,9.69,5.71,19.41,11.37,29.07,17.14,8.57,5.12,12.09,13.16,9.47,22.72-.87,3.17-.22,5.67.95,8.34,5.15,11.79,10.39,23.54,15.47,35.37,3.64,8.47.95,16.63-6.35,19.98-7.52,3.45-15.2.47-19.55-7.6-1.54-2.86-3.03-5.74-5.11-9.7Zm46.5-148.89c0-3.09-.06-6.18.02-9.26.05-1.8.81-3.19,2.9-3.22,1.92-.03,3.19.95,3.4,2.82.29,2.52.42,5.07.42,7.61,0,7.83.78,15.6,2.32,23.26,1.15,5.7,2.7,11.41,8.09,14.85,13.41,8.55,30.08,1.65,33.51-13.75,2.19-9.83,1.95-19.86,2.77-29.8.19-2.3-.1-5.13,3.48-4.96,3.37.17,3.42,2.74,3.24,5.18-.7,9.41-.78,18.94-2.39,28.19-2.52,14.47-8.15,23.55-25.36,24.95-3.07.25-6.15.36-9.23.43-2.58.06-5.55-.28-5.61,3.41-.06,3.53,2.59,4.49,5.59,4.51,4.54.02,9.09.05,13.63-.18,13.36-.66,22.91-7.11,28.79-19.12,6.61-13.48,9.24-27.81,8.73-42.68-.15-4.46-1.26-8.96-3.43-13.05-5.28-9.94-17.33-13.66-27.29-8.7-9,4.48-18.28,4.32-27.3.04-10.57-5.01-21.99-1.41-27.45,9.18-1.22,2.37-2.51,5.15-2.37,7.67.14,2.61,3.58,1.17,5.39,2.3,3.67,2.3,5.94,5.2,6.22,9.58.3,4.89-2.07,8.2-5.94,10.88-1.77,1.22-5.42,1.35-4.68,4.43,3.15,13.14,7,25.99,18.74,34.54,2.94,2.14,3.82,2.17,5.23-1.83,1.55-4.39.92-6.87-2.37-9.83-4.07-3.67-5.3-9.01-6.37-14.18-1.58-7.66-2.33-15.44-2.67-23.28Zm-100.99,51.78v.04c5.27,0,10.55-.15,15.81.05,3.24.12,4.62-1.03,4.65-4.31.08-8.66,2.6-16.82,5.87-24.71,1.2-2.88.9-4.16-2.09-5.26-5.82-2.14-10.99-5.5-15.85-9.33-1.84-1.45-4.23-3-2.3-5.75,2.17-3.1,4.31-1.16,6.4.47,24.07,18.82,52.06,16.03,76.34,1.78,2.62-1.54,5.07-3.42,3.03-6.94-1.9-3.28-4.64-2.82-7.53-1.32-5.81,3.01-11.84,5.45-18.25,6.89-19.2,4.31-36.39,1.02-50.5-13.55-1.61-1.66-3.59-3.67-1.19-6.05,2.4-2.38,4.19-.5,5.91,1.28,3.8,3.96,7.99,7.38,13.11,9.55,1.73.73,3.22,1.3,3.43-1.37.45-5.5.97-11.51-3.58-15.3-4.56-3.81-10.35-4.91-16.33-2.32-7.01,3.03-12.72,7.67-17.4,13.61-13.81,17.53-17.06,38.38-18.74,59.73-.22,2.83,1.44,2.84,3.39,2.83,5.27-.02,10.54,0,15.81,0Zm256.6-35.12c2.08-9.78,1.96-17.95,1.89-26.12-.02-2.36.78-3.92,3.37-3.91,2.34.01,3.06,1.56,3.15,3.6.03.73.05,1.45.05,2.18.25,29.77-6.1,57.25-27.42,79.61-3.48,3.65-2.8,8.18,1.15,10.62,3.96,2.45,6.8.36,9.62-2.25,21.76-20.23,32.27-45.06,30.9-74.85-.11-2.38-.93-5.57,2.98-5.82,3.94-.24,3.43,2.96,3.6,5.39,1.02,14.51-1.06,28.58-6.59,42.03-1.65,4.02-.71,4.91,3.36,4.72,6.17-.28,12.36-.11,18.53-.07,2.3.02,3.7-.24,3.49-3.28-1.17-16.56-3.7-32.81-11.31-47.78-5.81-11.42-13.62-21.09-26.25-25.54-8.58-3.02-17.06,1.37-18.28,9.75-1.61,11.01,2.51,20.79,7.74,31.7Zm-255.93,41.73v.02c-5.45,0-10.89.09-16.33-.04-2.79-.06-3.57.88-2.69,3.54,2.63,7.95,7,14.32,15.33,17.06,13.93,4.58,27.17,10.9,40.78,16.28,5.48,2.17,6.8,6.11,4.01,11.33-7.11,13.29-10.73,27.57-12.35,42.44-.73,6.73,1.64,10.78,6.79,11.8,4.28.85,7.75-2.01,9.74-8.13,5.38-16.5,10.71-33.02,16.09-49.52,2.76-8.47.8-13.78-6.91-18.31-10.3-6.05-20.61-12.08-30.89-18.16-1.36-.81-3.66-1.26-3.57-3.01.33-6.6-4.21-5.3-8.02-5.3-3.99,0-7.99,0-11.98,0Zm115.47,19.39c0,.06.68-.11.68-.06,1.09,0,1.5.23,2.59.23,9.05,0,9.01.01,12.2,8.37,8.71,22.81,17.47,45.61,26.19,68.42,1.57,4.11,3.9,7.12,8.87,5.78,4.31-1.16,5.98-4.85,4.45-10.04-8.02-27.05-16.08-54.09-24.23-81.1-1.72-5.72-5.64-8.37-11.83-8.54-3.81-.1-7.65.18-11.43-.15-7.64-.66-15.18-2.14-21.38-6.95-3.36-2.61-4.77-1.94-5.8,1.77-.39,1.39-1.14,2.67-1.54,4.05-2.82,9.59,2.06,17.07,12,18.17,3.05.34,6.16.05,9.25.05Zm106.21,20.5c.03.19.02,1.5.4,2.68,5.76,17.91,11.54,35.81,17.39,53.7.61,1.87,1.51,3.65,3.4,4.77,2.69,1.6,5.31,2.13,8.19.52,3.63-2.04,4.82-5.22,4.48-9.15-1.37-15.48-5.06-30.3-12.41-44.11-2.71-5.09-1.64-9,3.4-11.13,13-5.49,25.93-11.24,39.25-15.87,8.91-3.1,14.27-8.57,17.21-17.21,1.13-3.32.32-4.16-2.98-4.1-7.44.14-14.9.19-22.33-.05-2.96-.1-4.53.9-6,3.41-5.57,9.44-12.55,17.77-20.89,24.91-5.46,4.68-12.2,5.35-17.32.78-3.78-3.38-5.9-1.7-8.37.95-2.31,2.47-3.64,5.37-3.42,9.92Zm-67.45-155.12c.04-13.56-10.48-24.25-23.9-24.27-13.26-.02-24.22,10.87-24.25,24.11-.03,12.85,10.92,23.89,23.83,24.04,13.48.15,24.28-10.45,24.32-23.88Zm-114.42-19.99c-13.5-.03-24.28,10.6-24.3,23.97-.02,13,11.34,24.33,24.28,24.23,12.91-.1,23.83-11.05,23.89-23.93.06-13.64-10.35-24.23-23.86-24.26Zm180.7,23.87c-.04,13.22,10.94,24.33,24.03,24.32,12.76,0,23.97-11.08,24.12-23.82.15-13.36-10.53-24.25-23.9-24.35-13.61-.1-24.21,10.33-24.25,23.85Zm-70.24,113.81c1.05,3.12,2.1,5.79,2.84,8.54,7.88,28.99,18.57,57.02,29.4,84.99,2.08,5.37,5.3,7.43,9.22,6.13,4.43-1.47,6.04-4.8,4.47-10.05-8.08-27-16.29-53.95-24.32-80.96-1.62-5.45-5.22-8.14-10.57-8.6-3.56-.3-7.16-.06-11.04-.06Zm-129.8,36.02c.14-.37.29-.74.43-1.12-8.32-3.32-16.46-7.25-25-9.81-10.38-3.11-21.27-.78-31.92-1.3-4.22-.21-7.32,1.44-7.36,6-.04,4.53,3,6.23,7.22,6.23,18.87,0,37.75,0,56.62,0Zm243.04-.06c19.51,0,39.02.09,58.53-.09,3.48-.03,5.63-2.52,5.52-6.16-.1-3.62-2.24-5.76-5.83-5.86-6.17-.17-12.39.47-18.5-.17-14.98-1.57-26.87,6.64-39.73,12.29Zm-199.2,18.9c-2.52,7.85-4.47,14.06-6.52,20.23-.52,1.57-1.23,3.03-.38,4.69,2.91,5.64,5.55,11.43,8.81,16.86,1.92,3.19,5.22,4.43,8.99,2.67,3.55-1.66,5.82-4.79,4.44-8.31-4.6-11.75-9.81-23.26-15.34-36.14Zm45.92-18.86c4.53,0,9.06.02,13.58-.02,1.02,0,2.27.4,2.99-.65,1.23-1.81-4.15-11.5-6.46-11.53-7.79-.07-15.58-.08-23.36,0-3.78.04-6.27,1.8-6.29,5.86-.02,4.24,2.52,6.19,6.51,6.3,4.34.12,8.69.03,13.04.04Zm112.29,27.22c-4.13,9.46-7.8,17.69-11.28,25.99-1.27,3.02-1.04,6.1,1.6,8.47,2.09,1.88,4.4,3.05,7.39,1.96,4.01-1.47,10.23-11.43,9.07-15.48-1.87-6.56-4.18-12.99-6.78-20.94Zm-186.91-21.5q-9.13,1.82-5.79,11.76c1.97-4.01,3.73-7.57,5.79-11.76Zm212.94.01c2.1,4.2,3.88,7.75,5.97,11.94q2.78-10.22-5.97-11.94Z"/>
    <path class="cls-1" d="m352.83,456.38c-.43,0-.85-.02-1.27-.07-4.63-.49-8.75-3.66-12.04-9.22-3.37,5.5-7.75,8.75-12.54,9.22-4.91.48-9.89-2-14.15-7.03-3.68,5.33-9.03,7.74-15.12,6.78-6.06-.95-10.35-4.77-12.78-11.36-3.31-9.02-6.8-18.15-10.17-26.98-2.79-7.3-5.67-14.85-8.44-22.3-1.01-2.7-2.1-3.48-4.7-3.33-5.57.31-10.95.31-16,0-2.72-.17-3.55.51-4.07,3.28-2.39,12.88-4.89,25.95-7.31,38.6-.95,4.94-1.89,9.88-2.83,14.81-.05.24-.07.48-.1.72-.05.49-.11,1.04-.29,1.61-.65,2.09-1.86,5.98-6.2,4.98-1.39-.32-4.41-1.56-3.88-6.16-1.48,2.02-3.5,3.68-6.03,4.83-8.38,3.84-16.89.58-21.68-8.32-1.02-1.89-2.02-3.8-3.18-6.02l-.18-.34c-.66,1.93-1.24,3.6-1.88,5.23-3.04,7.68-10.69,12.22-18.18,10.8-8.39-1.59-13.7-8.14-13.54-16.7l.02-1.32c.06-4.05.13-8.23,1.36-12.11,2.47-7.79.87-15.12-.83-22.88-.68-3.11-1.38-6.32-1.79-9.54-.11-.88-.27-1.44-2.23-1.42-12.91.04-27.91.08-42.55,0-1.57,0-1.96.19-2.4,2.51-2.52,13.38-5.19,26.95-7.78,40.08-.94,4.78-1.88,9.56-2.81,14.34-.05.23-.06.47-.08.7-.05.5-.1,1.07-.3,1.66-.67,1.97-1.89,5.51-5.85,4.66-1.52-.32-4.93-1.66-3.86-7.01,2.2-11.04,4.31-21.94,6.45-33.07.49-2.54.96-5.09,1.42-7.63.89-4.87,1.82-9.9,2.88-14.82.16-.75.16-1.08.14-1.2-.11-.06-.43-.19-1.24-.35-9.21-1.76-13.47-7.18-12.65-16.11.7-7.68,6.8-12.45,15.91-12.47,4.73,0,9.45-.05,14.18-.1h.43s-.05-.07-.05-.07c-5.7-8.25-8.14-17.26-7.26-26.77,1.6-17.12,3.62-33.76,10.77-49.15,7.74-16.67,17.91-27.16,31.88-32.84-4.9-6.79-7.18-13.82-6.96-21.44.45-15.34,12.71-29.16,27.33-30.81,18.09-2.03,32.45,7.65,36.6,24.68,3.74,15.36-4.88,31.74-19.62,37.28-1.25.47-2.64.71-3.99.95-1.72.3-3.68.65-4.18,1.38-.54.78-.02,3.05.4,4.87.25,1.1.51,2.24.64,3.31.06.51.05,1,.04,1.44v.4c-.03,3.32-.05,6.19.73,6.94.75.72,3.43.65,7.14.47,7.6-.37,15.15-2.21,23.07-5.63,1.72-.74,2.41-1.53,2.62-3,2.28-15.54,9.64-24.07,24.47-28.16-5.28-9.94-6.07-19.45-2.4-29.01,2.53-6.6,6.89-11.86,12.94-15.63,12.19-7.59,29.11-5.99,39.36,3.71,5.33,5.05,8.81,11.8,9.81,19.03,1,7.28-.5,14.8-4.34,21.9,12.45,2.92,20.38,10.56,23.59,22.75,1.59,6.04,1.98,12.76,1.21,21.15-1.23,13.5-4.43,25.11-9.77,35.5-2.46,4.77-5.78,8.87-9.95,13.22,9.35,1.36,14.98,7.01,18.05,17.93,5.04,17.94,10.53,36.09,15.83,53.64,2.25,7.45,4.5,14.89,6.72,22.35.82-1.92,1.64-3.83,2.46-5.75,3.25-7.6,6.62-15.46,10.1-23.11,1.13-2.49,1.2-4.61.25-7.57-.23-.72-.48-1.43-.72-2.15-1.06-3.1-2.16-6.31-2.26-9.87-.26-8.74,3.16-15.21,10.18-19.23,2.38-1.37,3.2-2.61,3.21-4.94.03-3.54,2.25-6.21,4.64-8.57,8.77-8.63,15.1-19.7,19.92-34.85.64-2-.07-3.55-.96-5.52-.45-.99-.87-1.92-1.3-2.85-2.87-6.27-5.83-12.75-7.67-19.63-1.54-5.77-3.04-13.39-.92-21.25.37-1.38.26-1.71.25-1.74-.08-.08-.45-.3-1.96-.63-17.06-3.75-27.74-17.48-26.57-34.19.97-13.85,9.89-24.9,23.27-28.84,12.63-3.71,26.63.95,34.83,11.61,7.97,10.36,8.66,25.4,1.69,36.59-.64,1.03-1.32,2.01-2.04,3.04,28.75,13.52,36.53,39.83,40.33,63.9.18,1.17.38,2.34.57,3.5,1.46,8.87,2.97,18.04.76,27.39-1.19,5.02-3.37,9.47-6.29,14.32h3.11c4.19,0,8.12-.02,12.04.01,8.48.06,14.6,5.13,15.22,12.63.74,8.79-3.62,14.43-12.28,15.88-1.24.21-1.48.44-1.49.45-.1.26.14,1.49.22,1.89,1.99,10.03,3.92,20.23,5.79,30.11,1.5,7.95,3.01,15.89,4.55,23.83.34,1.77.81,4.18-.44,5.97-.72,1.02-1.87,1.66-3.42,1.9-4.61.7-5.45-3.66-5.86-5.76l-.05-.27c-.74-3.79-1.49-7.57-2.24-11.36-2.82-14.28-5.73-29.06-8.35-43.64-.48-2.67-1.14-2.97-3.73-2.92-14.3.11-27.51.1-40.38-.01-2.51-.03-3.13.45-3.44,2.66-.62,4.4-1.55,10.15-3.18,15.67-1.26,4.28-.45,8.39.41,12.74.49,2.47,1,5.03,1.1,7.65.05,1.2.19,2.39.34,3.65.17,1.47.35,2.98.37,4.52.12,8.46-4.02,14.2-11.99,16.62-6.98,2.11-14.28-.91-18.6-7.7-.15-.24-.3-.48-.45-.73-5.17,6.05-10.5,9.2-15.57,9.2Zm-13.28-16.45l1.46,3.02c2.98,6.17,6.75,9.67,10.89,10.1,4.75.51,10.09-2.88,15.44-9.77l1.49-1.92,1.22,2.11c.19.32.36.63.54.94.34.6.66,1.18,1.02,1.74,3.56,5.6,9.27,8.02,14.89,6.32,6.61-2,9.77-6.4,9.67-13.44-.02-1.37-.18-2.73-.35-4.18-.15-1.27-.3-2.58-.36-3.9-.09-2.36-.56-4.69-1.04-7.15-.9-4.55-1.83-9.25-.34-14.3,1.57-5.32,2.47-10.92,3.08-15.21.69-4.87,3.8-5.47,6.71-5.48,12.86.11,26.05.12,40.33.01,3.71.01,6.13.9,6.98,5.62,2.61,14.55,5.52,29.31,8.34,43.58.75,3.79,1.49,7.57,2.24,11.36l.05.28c.6,3.1,1.04,3.32,2.15,3.15.44-.07,1.01-.22,1.24-.54.46-.65.11-2.41-.09-3.46-1.55-7.94-3.05-15.89-4.56-23.84-1.87-9.86-3.8-20.07-5.78-30.08-.35-1.74-.54-3.18.3-4.4.83-1.2,2.3-1.59,3.64-1.81,6.93-1.16,10.15-5.33,9.56-12.38-.49-5.8-5.19-9.59-11.98-9.63-3.91-.03-7.83-.02-12.01-.01h-9.03s1.59-2.5,1.59-2.5c3.53-5.58,6.14-10.41,7.43-15.84,2.06-8.72.61-17.56-.8-26.11-.19-1.18-.39-2.35-.57-3.53-3.73-23.69-11.43-49.61-40.21-62.23l-1.81-.79,1.11-1.63c.36-.53.72-1.05,1.07-1.55.72-1.02,1.39-1.99,2.01-2.98,6.27-10.05,5.65-23.57-1.51-32.86-7.38-9.59-19.97-13.8-31.32-10.47-12.04,3.54-20.06,13.47-20.93,25.92-1.07,15.25,8.36,27.32,24.01,30.76,1.68.37,3.26.81,4.06,2.13.77,1.27.51,2.81.11,4.29-1.49,5.55-1.21,11.58.92,19.56,1.77,6.61,4.67,12.97,7.48,19.11.43.94.86,1.87,1.28,2.81,1.01,2.24,2.14,4.72,1.12,7.91-4.99,15.67-11.58,27.17-20.75,36.19-2.19,2.15-3.65,4.04-3.67,6.26-.04,4.4-2.48,6.39-4.86,7.76-5.97,3.42-8.76,8.75-8.54,16.29.09,3.06,1.06,5.9,2.09,8.9.25.74.5,1.47.74,2.21,1.2,3.73,1.09,6.7-.39,9.93-3.47,7.62-6.82,15.46-10.07,23.04-1.26,2.94-2.52,5.88-3.79,8.82l-.79,1.83-1.64-1.13c-1.52-1.05-1.94-2.52-2.27-3.71l-.12-.41c-2.22-7.45-4.47-14.9-6.72-22.34-5.31-17.57-10.79-35.73-15.85-53.7-3.03-10.78-8.58-15.52-18.55-15.85l-3.77-.12,2.67-2.67c5.11-5.11,9.07-9.59,11.79-14.88,5.15-10.01,8.23-21.23,9.42-34.31.73-8,.37-14.36-1.12-20.02-3.09-11.73-10.7-18.54-23.27-20.83l-2.35-.43,1.25-2.04c10.08-16.48,4.27-31.22-3.78-38.84-9.2-8.71-24.41-10.14-35.38-3.31-5.44,3.38-9.34,8.1-11.62,14.02-3.52,9.17-2.46,18.35,3.22,28.06l1.12,1.91-2.15.51c-14.91,3.55-21.88,11.08-24.07,25.99-.49,3.36-2.7,4.72-4.56,5.53-8.29,3.58-16.2,5.51-24.21,5.9-5.09.24-7.82.29-9.56-1.37-1.79-1.72-1.77-4.58-1.74-9.32v-.45c.02-.36.02-.7-.01-.99-.1-.89-.33-1.89-.57-2.95-.62-2.7-1.26-5.49.09-7.45,1.28-1.86,3.84-2.31,6.31-2.75,1.2-.21,2.44-.43,3.4-.79,13.23-4.97,20.96-19.66,17.6-33.44-3.73-15.33-16.71-24.04-33.05-22.21-13.07,1.47-24.03,13.88-24.43,27.65-.22,7.58,2.19,14.27,7.59,21.07l1.41,1.78-2.13.78c-14.16,5.15-24.36,15.3-32.09,31.94-6.93,14.91-8.91,31.25-10.48,48.07-.83,8.85,1.36,16.9,6.69,24.61l.11.16c.49.7,1.64,2.33.25,4.16l-.36.48-.58.13c-.08.02-.16.04-.24.06-.31.09-.7.2-1.16.2h-1.06c-4.74.05-9.47.1-14.21.11-7.38.01-12.11,3.56-12.66,9.49-.66,7.26,2.42,11.14,10.01,12.59,1.23.23,2.6.58,3.37,1.75.74,1.11.58,2.44.31,3.71-1.06,4.88-1.97,9.88-2.86,14.72-.47,2.55-.94,5.11-1.43,7.66-2.14,11.14-4.24,22.05-6.45,33.1-.55,2.76.59,3.01,1.34,3.17.85.18,1.2.03,2.05-2.46.1-.28.13-.61.16-.96.03-.35.07-.7.13-1.04.94-4.78,1.88-9.56,2.82-14.34,2.58-13.12,5.25-26.69,7.77-40.06.47-2.5,1.33-5.18,5.57-5.18h.06c14.63.09,29.62.05,42.52,0,3.26.02,5.13,1.43,5.49,4.28.39,3.08,1.08,6.22,1.74,9.25,1.71,7.84,3.49,15.94.75,24.57-1.08,3.42-1.14,7.36-1.2,11.17l-.02,1.33c-.13,6.98,4.04,12.13,10.88,13.42,5.95,1.12,12.06-2.57,14.52-8.79.64-1.61,1.19-3.22,1.89-5.27.35-1.03.74-2.16,1.18-3.42l1.24-3.54,3.68,7.02c1.15,2.21,2.15,4.1,3.16,5.99,3.97,7.36,10.64,10,17.43,6.89,6.59-3.02,8.81-10.2,5.53-17.85-3.34-7.79-6.82-15.69-10.18-23.33-1.76-4.01-3.53-8.02-5.28-12.03-1.15-2.63-2.07-5.6-1.02-9.42,2.38-8.68-.72-16.09-8.73-20.88-6.71-4.01-13.57-8.04-20.21-11.93-2.95-1.73-5.9-3.47-8.85-5.2-.21-.12-.41-.24-.62-.35-1.56-.87-3.69-2.05-3.82-5.19-.55-13.17,1.52-24.69,6.32-35.22.85-1.87,2.3-3.94,5.91-3.25,13.56,2.56,27.05,1.11,40.11-4.31,1.33-.55,3.05-1.09,4.53-.3,1.49.78,2.03,2.48,2.35,4.03,1.38,6.52,3.2,13.35,7.19,19.13,3.2,4.64,3.41,8.65.72,13.85-4.94,9.54-4.82,16.71.4,23.24.29.36,1.17,1.47.95,2.79-.21,1.27-1.25,1.93-2,2.42-.16.1-.32.2-.47.31-4.49,3.14-6.07,7.35-4.71,12.52,1.29,4.89,4.44,7.57,9.38,7.97,1.18.1,2.65.36,3.52,1.52.88,1.17.71,2.69.46,3.88-.9,4.33-1.71,8.77-2.5,13.06-.5,2.76-1.01,5.52-1.54,8.27-2.09,10.84-4.34,22.48-6.69,34.14-.57,2.84.53,3.09,1.26,3.26,1.04.24,1.45.08,2.33-2.76.08-.27.12-.62.16-.99.04-.33.07-.66.13-.98.94-4.94,1.89-9.88,2.83-14.82,2.42-12.64,4.92-25.71,7.31-38.58.81-4.39,3.13-6.22,7.49-5.95,4.93.31,10.18.31,15.61,0,4.08-.23,6.45,1.41,7.95,5.46,2.77,7.44,5.65,14.98,8.43,22.28,3.38,8.84,6.87,17.98,10.19,27.02,2.01,5.47,5.35,8.5,10.21,9.26,5.09.8,9.22-1.18,12.25-5.89.45-.7,1.16-.98,1.63-1.17.1-.04.2-.08.29-.12l1.23-.66.85,1.1c3.75,4.9,8.09,7.38,12.21,6.97,4.36-.43,8.41-4.02,11.42-10.11l1.48-3.01Zm-168.37-129.7c-.67,0-1.02.34-1.55,1.49-4.58,10.04-6.56,21.08-6.03,33.72.05,1.26.66,1.64,2.14,2.47.23.13.46.26.69.39,2.95,1.74,5.9,3.47,8.85,5.2,6.64,3.9,13.5,7.93,20.23,11.94,9.25,5.53,12.97,14.48,10.21,24.55-.74,2.69-.22,4.77.87,7.25,1.75,4.01,3.52,8.02,5.28,12.02,3.36,7.64,6.84,15.55,10.19,23.36.63,1.48,1.09,2.95,1.38,4.4,1.49-7.59,2.94-15.05,4.31-22.16.53-2.74,1.03-5.49,1.54-8.24.79-4.31,1.61-8.77,2.51-13.14.19-.91.12-1.22.11-1.28,0,.03-.29-.13-1.15-.2-6.28-.51-10.64-4.2-12.28-10.4-1.7-6.45.43-12.14,6-16.04.19-.14.39-.26.58-.39.11-.07.25-.16.38-.25-.03-.05-.07-.1-.12-.16-7.95-9.95-4.24-20.05-.75-26.79,2.13-4.12,2-6.86-.51-10.49-4.33-6.27-6.32-13.79-7.7-20.31-.34-1.61-.67-1.81-.68-1.81,0,0-.35-.15-1.76.43-13.66,5.67-27.78,7.18-41.97,4.5-.31-.06-.56-.09-.78-.09Zm36.4,139.44c-2.82,0-5.34-1.48-7.02-4.28-2.3-3.83-4.32-7.88-6.27-11.8-.86-1.72-1.71-3.44-2.59-5.15-1.07-2.08-.43-3.93.09-5.41l.19-.55c1.46-4.41,2.87-8.8,4.49-13.88l3.37-10.5,1.72,4.02c1.56,3.64,3.1,7.18,4.61,10.64,3.82,8.79,7.44,17.09,10.75,25.54,1.57,4-.55,8.18-5.27,10.39-1.39.65-2.76.97-4.07.97Zm-7.3-42.24l-.7,2.18c-1.63,5.09-3.03,9.48-4.5,13.91l-.21.6c-.46,1.31-.68,2.04-.27,2.83.89,1.72,1.75,3.46,2.61,5.19,1.92,3.86,3.9,7.85,6.14,11.57,1.59,2.65,4.04,3.37,6.9,2.03,2.47-1.16,4.72-3.4,3.61-6.23-3.29-8.39-6.89-16.67-10.7-25.43-.95-2.18-1.91-4.39-2.88-6.64Zm-27.55,42.24c-.58,0-1.17-.06-1.78-.18-3.5-.7-9.2-3.38-8.09-13.58,1.8-16.55,5.9-30.63,12.53-43.04,1.18-2.21,1.51-4.08.97-5.55-.52-1.43-1.92-2.6-4.15-3.48-4.78-1.89-9.59-3.93-14.24-5.9-8.58-3.64-17.45-7.39-26.44-10.35-7.95-2.62-13.16-8.37-16.37-18.1-.39-1.19-.8-2.92.19-4.26,1-1.35,2.81-1.46,4.09-1.43,3.83.09,7.74.07,11.52.05,1.05,0,2.1,0,3.15-.01h0s5.06-.02,5.06-.02h8.56s0,0,.01,0c.51,0,1.04-.02,1.56-.05,2.24-.11,4.78-.22,6.5,1.5,1.19,1.2,1.71,3.02,1.59,5.56.12.26,1.01.67,1.49.88.43.19.87.39,1.28.63,6.68,3.95,13.37,7.88,20.07,11.8l10.82,6.36c8.37,4.92,10.66,10.97,7.64,20.23-2.93,8.99-5.85,17.98-8.77,26.97-2.44,7.52-4.88,15.04-7.33,22.55-1.98,6.08-5.51,9.41-9.84,9.41Zm-54.72-102.47c0,.15.01.52.26,1.27,2.86,8.66,7.4,13.75,14.29,16.02,9.12,3,18.05,6.78,26.7,10.45,4.63,1.96,9.42,3.99,14.17,5.87,3.13,1.24,5.15,3.05,6.01,5.4.87,2.38.48,5.15-1.16,8.22-6.43,12.03-10.41,25.72-12.17,41.85-.64,5.88,1.15,9.16,5.48,10.01,4.33.87,6.67-3.35,7.87-7.03,2.45-7.51,4.89-15.03,7.33-22.55,2.92-8.99,5.84-17.99,8.77-26.98,2.55-7.8.87-12.25-6.18-16.39l-10.82-6.35c-6.7-3.93-13.39-7.86-20.08-11.81-.29-.17-.62-.32-.96-.47-1.32-.6-3.53-1.6-3.41-4.03.08-1.53-.14-2.6-.63-3.09-.7-.7-2.39-.62-4.03-.54-.58.03-1.15.05-1.71.05h-10.36s0,.02,0,.02h-1.64c-1.59,0-3.18,0-4.77.01-3.8.02-7.73.04-11.61-.05-.83-.03-1.21.07-1.36.13Zm265.25,102.43c-2.21,0-4.09-.9-5.49-1.73-2.49-1.48-3.5-3.8-4.11-5.67-5.18-15.84-10.71-32.9-17.4-53.7-.38-1.17-.44-2.37-.47-2.89v-.22c-.24-4.6.95-8.03,3.85-11.12,2.02-2.15,5.39-5.75,10.66-1.05,4.3,3.84,10.11,3.53,15.17-.8,8.18-7.01,15.09-15.25,20.54-24.5,1.83-3.11,4-4.34,7.47-4.22,7.88.26,15.67.17,22.25.05,1.67-.03,3.53.12,4.52,1.48,1,1.37.58,3.19.04,4.79-3.14,9.2-8.93,14.99-18.22,18.23-10.79,3.76-21.54,8.33-31.92,12.76-2.41,1.03-4.82,2.05-7.23,3.07-1.93.81-3.14,1.9-3.61,3.22-.53,1.48-.18,3.38,1.02,5.63,6.97,13.11,11.09,27.75,12.59,44.74.43,4.89-1.35,8.5-5.3,10.72-1.55.87-3.01,1.2-4.34,1.2Zm-24.21-64.39c0,.06.01.14.01.23.02.39.07,1.29.31,2.06,6.68,20.8,12.21,37.86,17.39,53.69.65,1.98,1.45,3.14,2.68,3.87,2.53,1.5,4.49,1.65,6.55.5,2.8-1.57,3.96-3.98,3.65-7.58-1.46-16.54-5.46-30.77-12.22-43.49-1.65-3.1-2.06-5.88-1.21-8.27.79-2.22,2.61-3.95,5.42-5.14,2.41-1.02,4.81-2.04,7.22-3.07,10.44-4.45,21.23-9.05,32.13-12.85,8.38-2.92,13.38-7.91,16.2-16.19.38-1.11.41-1.6.39-1.78-.17-.06-.63-.19-1.79-.16-6.62.12-14.46.21-22.42-.06-2.26-.08-3.32.53-4.54,2.61-5.64,9.56-12.78,18.08-21.23,25.32-6.3,5.4-13.94,5.7-19.48.76-2.66-2.37-3.67-1.74-6.09.84-2.26,2.42-3.16,5.02-2.98,8.7Zm-5.34,64.38c-2.72,0-4.79-1.51-6.22-2.8-2.97-2.67-3.68-6.33-2.01-10.32,2.47-5.9,5.05-11.78,7.79-18.02,1.13-2.58,2.3-5.24,3.5-8l1.72-3.94,1.34,4.09c.8,2.45,1.58,4.76,2.32,6.98,1.63,4.86,3.17,9.46,4.48,14.02,1.43,5.02-5.39,15.75-10.08,17.46-1.01.37-1.95.52-2.82.52Zm4.34-33.91c-.61,1.39-1.2,2.75-1.79,4.09-2.73,6.22-5.31,12.1-7.77,17.97-1.12,2.68-.72,4.9,1.18,6.62,2.09,1.88,3.76,2.36,5.74,1.64,3.43-1.25,8.93-10.46,8.06-13.49-1.28-4.49-2.74-8.85-4.43-13.88-.32-.96-.65-1.94-.99-2.94Zm-32.72,33.86c-2.66,0-6.21-1.36-8.6-7.53-11.58-29.91-21.79-56.96-29.45-85.15-.49-1.8-1.12-3.59-1.79-5.5-.33-.95-.68-1.93-1.02-2.96l-.72-2.16h2.27c1.21,0,2.39-.02,3.55-.05,2.63-.05,5.11-.1,7.63.11,6.19.53,10.23,3.81,12,9.76,4.59,15.41,9.3,31.07,13.87,46.21,3.49,11.58,6.98,23.16,10.45,34.75,1.8,6.01-.16,10.3-5.52,12.07-.65.22-1.58.44-2.66.44Zm-37.04-100.04c.09.26.18.52.27.77.69,1.96,1.34,3.82,1.86,5.73,7.62,28.04,17.8,55.01,29.35,84.83,2.59,6.69,6.04,5.55,7.18,5.17,2.46-.82,5.08-2.47,3.41-8.03-3.47-11.59-6.96-23.17-10.45-34.74-4.57-15.14-9.29-30.8-13.87-46.22-1.39-4.66-4.29-7.02-9.14-7.43-2.35-.2-4.75-.15-7.29-.1-.44,0-.88.02-1.33.03Zm11.21,100.01c-5.44,0-7.45-5.26-8.17-7.15-3.93-10.29-7.88-20.58-11.82-30.87-4.8-12.51-9.59-25.03-14.37-37.55l-.05-.14c-1.4-3.66-2.17-5.68-3.26-6.42-1.11-.75-3.31-.74-7.35-.75h0c-.66,0-1.13-.07-1.53-.13-.35-.05-.63-.09-1.05-.09h-.07c-.19.04-.46.08-.74.06-.91,0-1.82.03-2.73.06-2.14.06-4.36.12-6.56-.12-5.26-.58-9.5-2.91-11.93-6.56-2.45-3.68-2.97-8.55-1.46-13.7.23-.77.53-1.47.82-2.15.28-.65.55-1.27.71-1.87.48-1.72,1.26-3.76,3.1-4.37,1.88-.62,3.81.61,5.28,1.75,6.19,4.8,13.84,6.03,20.52,6.61,2.25.19,4.59.17,6.85.14,1.46-.02,2.98-.04,4.48,0,6.98.19,11.47,3.45,13.35,9.7,7.34,24.32,15.04,50.1,24.23,81.11.96,3.22.81,6.08-.41,8.27-1.04,1.86-2.83,3.18-5.18,3.81-.96.26-1.85.37-2.65.38Zm-44.79-86.16c9.42,0,10.08.5,13.43,9.27l.05.14c4.78,12.52,9.58,25.03,14.37,37.55,3.94,10.29,7.89,20.58,11.82,30.87,1.68,4.39,3.56,5.69,6.92,4.78,1.5-.4,2.56-1.16,3.17-2.25.78-1.4.83-3.39.13-5.75-9.19-31.01-16.89-56.77-24.23-81.09-1.49-4.95-4.67-7.22-10.31-7.38-1.44-.04-2.92-.02-4.36,0-2.34.03-4.77.06-7.17-.15-7.15-.62-15.38-1.97-22.24-7.28-1.73-1.34-2.24-1.23-2.25-1.23,0,0-.44.22-.98,2.14-.23.82-.55,1.56-.86,2.29-.27.62-.52,1.21-.69,1.78-1.25,4.26-.89,8.05,1.04,10.96,1.91,2.87,5.22,4.64,9.57,5.12,1.98.22,3.98.16,6.11.1.99-.03,1.97-.06,2.96-.06h.07c.22-.04.49-.09.79-.05.57.01.99.07,1.36.13.35.05.62.09,1.04.09.07,0,.17,0,.25,0Zm136,42.78l-9.37-18.75,3.27.64c4.56.9,7.07,1.39,8.28,3.34,1.28,2.07.55,4.76-1.05,10.64l-1.13,4.13Zm-3.45-14.22l2.52,5.04c.47-1.96.66-3.33.33-3.86-.29-.46-1.31-.81-2.84-1.17Zm-221.99,13.75l-1.27-3.76c-1.92-5.7-2.79-8.31-1.58-10.4,1.16-2.01,3.65-2.5,8.6-3.49l3.25-.65-9.01,18.3Zm3.13-13.76c-1.69.39-2.87.77-3.14,1.24-.3.52,0,1.92.61,3.91l2.54-5.15Zm92.52-6.31c-.3,0-.57-.02-.79-.04-.19-.02-.38-.02-.56-.03-3.33.03-6.67.03-10,.02h-3.6c-1.38,0-2.77,0-4.15.01-2.92.02-5.95.03-8.93-.05-5.17-.15-8.12-3.04-8.1-7.95.03-4.71,2.91-7.43,7.91-7.48,7.65-.07,15.52-.07,23.39,0,2.61.03,5.3,4.64,6.34,6.62,1.89,3.6,2.38,6.11,1.46,7.46-.83,1.22-2.03,1.43-2.97,1.43Zm-1.34-3.34c.26,0,.53.02.8.04.2.01.51.04.7.03-.05-2-3.6-8.24-5.15-8.97-7.81-.07-15.62-.07-23.21,0-4.12.04-4.66,2.28-4.67,4.23-.01,1.94.49,4.53,4.92,4.66,2.93.08,5.93.06,8.82.05,1.39,0,2.78-.01,4.17-.01h3.6c3.32,0,6.64.01,9.97-.02h.05Zm-160,3.3c-3.02,0-5.32-.78-6.86-2.33-1.35-1.36-2.02-3.23-2-5.55.02-2.37.75-4.25,2.16-5.58,1.59-1.5,3.92-2.19,6.91-2.04,3.59.18,7.31.02,10.91-.14,7.04-.3,14.33-.61,21.4,1.5,6.01,1.8,11.88,4.29,17.55,6.7,2.49,1.06,5.06,2.15,7.6,3.16l1.51.6-1.42,3.67h-16.22c-13.84,0-27.68,0-41.52,0h0Zm-.54-12.25c-1.33,0-2.92.23-3.91,1.17-.74.7-1.12,1.78-1.13,3.23-.01,1.44.33,2.49,1.05,3.22,1.11,1.12,3.08,1.36,4.53,1.36h0c13.84,0,27.68,0,41.52,0h9.98c-.91-.38-1.82-.77-2.71-1.15-5.59-2.37-11.37-4.83-17.2-6.57-6.54-1.96-13.24-1.67-20.32-1.37-3.67.16-7.46.32-11.21.14-.19,0-.39-.01-.6-.01Zm329.88,12.21c-4.97,0-9.91,0-14.79-.01-4.96,0-9.92-.01-14.89-.01h-7.79l7.13-3.13c2.69-1.18,5.4-2.51,8.01-3.79,9.96-4.87,20.27-9.91,32.54-8.63,3.63.38,7.42.29,11.09.21,2.39-.05,4.85-.11,7.29-.04,4.45.12,7.29,2.98,7.42,7.45.07,2.3-.65,4.35-2.01,5.76-1.29,1.34-3.07,2.06-5.13,2.08-9.59.09-19.28.11-28.87.11Zm-22.34-3.29c2.52,0,5.03,0,7.55,0,14.3.02,29.09.04,43.63-.1,1.17-.01,2.14-.38,2.81-1.08.76-.79,1.14-1.96,1.1-3.4-.08-2.76-1.51-4.2-4.24-4.28-2.35-.07-4.78,0-7.12.04-3.77.09-7.67.18-11.5-.22-11.34-1.19-20.78,3.43-30.76,8.31-.48.24-.97.47-1.46.71Zm-29.32-9.81c-1.31,0-2.73-.37-4.27-1.32-2.35-1.45-3.81-3.58-4.12-6-.32-2.48.62-5.02,2.64-7.14,18.69-19.6,27.26-44.54,26.97-78.47,0-.71-.02-1.42-.05-2.13-.08-2.02-.78-2.03-1.52-2.03-.64.02-1.05.11-1.28.34-.3.3-.45.96-.44,1.92v.52c.08,7.97.15,16.21-1.93,25.95l-1,4.69-2.08-4.33c-5.31-11.07-9.56-21.16-7.89-32.64.62-4.25,2.94-7.79,6.53-9.96,3.99-2.41,9.06-2.81,13.92-1.1,11.44,4.03,20.08,12.4,27.17,26.34,8.26,16.23,10.44,33.58,11.49,48.41.08,1.09.06,2.68-1,3.81-1.08,1.15-2.63,1.23-4.13,1.22-1.3,0-2.59-.03-3.89-.04-4.78-.06-9.73-.12-14.56.1-2.12.1-4.22-.02-5.27-1.52-1.07-1.51-.48-3.52.32-5.46,5.31-12.93,7.48-26.82,6.47-41.3-.02-.34-.04-.7-.05-1.06-.03-.98-.07-2.2-.47-2.57-.21-.19-.69-.28-1.35-.24-.65.04-1.11.19-1.31.41-.39.45-.29,1.71-.21,2.71.03.34.05.66.07.98,1.37,29.85-9.2,55.46-31.43,76.12-1.55,1.44-4.06,3.77-7.32,3.77Zm19.63-100.37h.04c1.71,0,4.59.69,4.77,5.17.03.75.05,1.49.05,2.23.3,34.84-8.56,60.5-27.87,80.76-1.33,1.4-1.96,2.98-1.77,4.47.18,1.42,1.11,2.71,2.6,3.64,2.77,1.71,4.67.7,7.64-2.06,21.49-19.97,31.71-44.73,30.38-73.57-.01-.28-.04-.57-.06-.87-.13-1.62-.29-3.63,1-5.12.8-.92,2-1.44,3.58-1.54,1.59-.1,2.86.26,3.76,1.08,1.43,1.3,1.49,3.29,1.54,4.89.01.32.02.63.04.94,1.05,14.98-1.21,29.37-6.7,42.77-.62,1.5-.66,2.11-.65,2.31.19.08.78.23,2.43.15,4.92-.22,9.92-.17,14.75-.11,1.29.01,2.58.03,3.88.04,1.4,0,1.68-.14,1.72-.19,0,0,.2-.27.12-1.34-1.02-14.5-3.15-31.44-11.14-47.15-6.69-13.15-14.74-21.01-25.34-24.74-3.93-1.38-7.99-1.09-11.14.81-2.73,1.65-4.5,4.36-4.98,7.63-1.32,9,1.44,17.31,5.43,26.11,1.07-7.31,1.02-13.86.96-20.23v-.52c-.02-1.9.44-3.3,1.39-4.26.86-.86,2.06-1.3,3.58-1.3Zm-133.48,70.88c-1.32,0-2.63,0-3.93-.01h-.28c-2.55-.01-4.47-.66-5.7-1.91-1.04-1.06-1.55-2.49-1.52-4.26.08-4.95,4.26-4.99,6.51-5.01h.69c2.52-.07,5.84-.17,9.14-.44,16.7-1.35,21.52-10.03,23.88-23.6,1.13-6.48,1.5-13.26,1.86-19.81.15-2.7.3-5.48.51-8.22.06-.78.18-2.39-.35-2.98-.23-.26-.68-.41-1.34-.44-1.36-.07-1.57.09-1.72,2.63-.02.28-.03.56-.05.83-.25,2.99-.4,6.04-.55,9-.35,6.9-.7,14.04-2.26,21.02-1.75,7.86-6.84,14.06-13.95,17-7.15,2.96-15.18,2.15-22.04-2.23-5.93-3.79-7.61-9.93-8.81-15.91-1.56-7.75-2.35-15.68-2.35-23.58,0-2.53-.14-5.03-.41-7.43-.08-.69-.37-1.4-1.75-1.37-.58.01-1.25.02-1.29,1.63-.06,2.15-.05,4.34-.03,6.47,0,.9.01,1.81.01,2.71.37,8.68,1.23,16.2,2.63,22.98,1.11,5.38,2.32,10.1,5.86,13.29,3.82,3.45,4.59,6.59,2.82,11.59-.8,2.27-1.6,3.77-3.09,4.23-1.57.49-3.04-.45-4.65-1.62-12.15-8.85-16.09-21.84-19.37-35.48-.86-3.59,2.22-4.81,3.87-5.47.58-.23,1.13-.45,1.48-.69,3.86-2.67,5.48-5.58,5.24-9.43-.22-3.52-1.9-6.07-5.45-8.29-.34-.21-1.1-.26-1.76-.29-1.37-.08-4.23-.24-4.39-3.31-.15-2.83,1.14-5.76,2.55-8.5,5.84-11.32,18.01-15.4,29.6-9.91,8.77,4.15,17.48,4.15,25.87-.03,10.85-5.4,23.79-1.27,29.46,9.4,2.21,4.15,3.46,8.91,3.62,13.76.53,15.7-2.47,30.32-8.9,43.46-6.18,12.61-16.33,19.35-30.18,20.03-3.16.16-6.35.19-9.5.19Zm29.23-69.96c.13,0,.26,0,.4.01,1.58.08,2.8.6,3.63,1.55,1.32,1.5,1.29,3.57,1.16,5.39-.2,2.71-.35,5.48-.5,8.16-.37,6.65-.74,13.52-1.91,20.19-3.75,21.5-15.12,25.35-26.84,26.3-3.39.27-6.76.38-9.33.44h-.74c-2.98.04-3.25.33-3.27,1.8-.01.87.18,1.49.59,1.91.59.6,1.75.92,3.37.93h.28c4.36.02,8.86.04,13.26-.17,12.74-.63,21.71-6.58,27.4-18.2,6.2-12.64,9.08-26.74,8.57-41.91-.15-4.36-1.27-8.62-3.24-12.34-4.83-9.09-15.86-12.61-25.12-8-9.34,4.65-19.01,4.67-28.73.06-9.91-4.69-20.31-1.22-25.3,8.45-1.2,2.34-2.3,4.78-2.19,6.83,0,.03,0,.05,0,.07.27.09.91.13,1.31.15,1.06.06,2.26.13,3.31.79,2.64,1.65,4.5,3.53,5.63,5.74,0-1.11.01-2.23.04-3.34.08-2.97,1.76-4.77,4.5-4.81,2.81-.04,4.75,1.59,5.06,4.27.29,2.52.43,5.14.43,7.8,0,7.69.77,15.4,2.29,22.94,1.11,5.5,2.51,10.7,7.36,13.79,5.94,3.79,12.88,4.5,19.02,1.96,6.12-2.53,10.5-7.88,12.01-14.69,1.49-6.72,1.85-13.71,2.18-20.48.15-2.98.3-6.06.55-9.1.02-.24.03-.49.05-.75.11-1.88.33-5.72,4.74-5.72Zm-57.95,19.31c-1.06,2.35-2.92,4.42-5.6,6.27-.65.45-1.4.75-2.13,1.04-2.1.83-2.05,1.04-1.9,1.67,3.13,13.03,6.86,25.4,18.11,33.6,1.03.75,1.52,1.01,1.75,1.09.16-.19.47-.72.97-2.15,1.32-3.73.89-5.54-1.92-8.07-4.63-4.17-5.87-10.21-6.88-15.06-1.15-5.58-1.95-11.64-2.41-18.39Zm-83.35,48.3c-.19,0-.37,0-.54-.01-3.67-.14-7.42-.11-11.04-.08-1.57.01-3.14.03-4.7.03l-4.47-.04c-3.78,0-7.56,0-11.34,0-1.33,0-3,.01-4.1-1.18-.74-.8-1.04-1.92-.93-3.42,1.54-19.55,4.4-41.98,19.09-60.61,4.99-6.34,11.06-11.08,18.03-14.1,6.35-2.75,12.75-1.84,18.03,2.57,5.16,4.31,4.64,10.83,4.17,16.57v.12c-.05.56-.19,2.26-1.55,3.09-1.38.83-2.92.18-4.16-.34-4.74-2-9.08-5.16-13.66-9.92-.82-.85-1.82-1.89-2.47-1.9-.39-.03-.8.35-1.1.65-.99.98-.95,1.52,1.18,3.72,12.93,13.34,28.95,17.63,49,13.13,5.74-1.29,11.58-3.49,17.85-6.74,4.37-2.26,7.64-1.61,9.7,1.95,3.05,5.26-1.79,8.1-3.61,9.17-27.89,16.38-55.66,15.7-78.17-1.9l-.31-.25c-.91-.72-2.04-1.6-2.66-1.51-.3.04-.68.38-1.08.94-.73,1.05-.68,1.47,1.59,3.23l.38.3c5.54,4.37,10.43,7.25,15.4,9.08,1.28.47,2.84,1.21,3.51,2.73.67,1.53.14,3.23-.47,4.69-3.91,9.41-5.68,16.84-5.75,24.1-.02,2.07-.54,3.56-1.58,4.55-1.23,1.17-2.91,1.39-4.23,1.39Zm-6.93-3.39c2.16,0,4.35.02,6.51.11,1.2.05,2.01-.11,2.39-.47.36-.35.55-1.09.57-2.21.07-7.7,1.92-15.51,6-25.32.6-1.45.57-1.95.49-2.13-.06-.13-.33-.49-1.64-.97-5.3-1.95-10.48-5-16.29-9.58l-.36-.28c-1.73-1.34-4.96-3.85-2.26-7.69.94-1.35,2.05-2.12,3.28-2.3,2.03-.3,3.69,1.02,5.16,2.18l.3.24c21.39,16.72,47.84,17.31,74.5,1.65,3.32-1.95,3.44-2.98,2.44-4.71-.98-1.69-2.17-2.34-5.36-.69-6.53,3.38-12.62,5.68-18.64,7.03-21.26,4.77-38.28.19-52.04-14.01-1.55-1.6-4.7-4.85-1.17-8.35,1.08-1.07,2.23-1.63,3.44-1.6,2.03.02,3.49,1.55,4.78,2.89,4.27,4.44,8.26,7.36,12.58,9.18.27.12.77.32,1.11.42.02-.1.04-.24.05-.42v-.12c.43-5.2.87-10.57-2.99-13.8-4.28-3.57-9.48-4.31-14.63-2.08-6.56,2.84-12.04,7.13-16.76,13.12-14.12,17.92-16.9,39.77-18.4,58.84-.06.73.07.95.07.95.2.13,1.17.12,1.68.12,3.78-.02,7.57-.01,11.35,0l6.1.04c1.01,0,2.03-.01,3.04-.02,1.54-.01,3.11-.03,4.68-.03Zm30.93-77.14c-6.52,0-13.05-2.78-17.94-7.63-4.97-4.94-7.81-11.58-7.8-18.23,0-6.86,2.67-13.28,7.49-18.08,4.87-4.85,11.39-7.52,18.38-7.52h.07c6.93.02,13.36,2.66,18.1,7.43,4.8,4.83,7.43,11.39,7.4,18.47-.06,13.75-11.74,25.45-25.51,25.56-.06,0-.12,0-.18,0Zm.13-48.19c-6.11,0-11.82,2.33-16.07,6.56-4.2,4.19-6.52,9.79-6.53,15.77,0,5.78,2.48,11.58,6.84,15.91,4.32,4.29,10.11,6.75,15.79,6.68,12.02-.1,22.21-10.31,22.26-22.3.03-6.2-2.26-11.94-6.45-16.15-4.12-4.15-9.73-6.45-15.79-6.46h-.06Zm204.78,48.19c-6.72,0-13.11-2.7-18-7.6-4.96-4.97-7.67-11.49-7.65-18.37h1.64s-1.64,0-1.64,0c.02-6.95,2.67-13.39,7.47-18.14,4.84-4.79,11.37-7.42,18.43-7.34,6.9.05,13.35,2.78,18.17,7.69,4.82,4.91,7.43,11.41,7.35,18.31-.16,13.54-12.19,25.43-25.75,25.44h-.02Zm.05-48.17c-6.11,0-11.76,2.27-15.93,6.4-4.17,4.13-6.48,9.75-6.5,15.82h0c-.02,6,2.36,11.7,6.7,16.04,4.27,4.28,9.84,6.64,15.68,6.64h.01c11.84,0,22.35-10.38,22.48-22.21.07-6.02-2.21-11.7-6.41-15.98-4.2-4.28-9.84-6.67-15.86-6.71-.06,0-.12,0-.18,0Zm-114.38,43.85c-.1,0-.2,0-.31,0-13.83-.16-25.48-11.92-25.45-25.68.04-14.2,11.63-25.74,25.85-25.74h.04c6.88,0,13.3,2.66,18.07,7.45,4.84,4.86,7.49,11.42,7.47,18.46h0c-.02,6.92-2.72,13.37-7.58,18.16-4.82,4.75-11.23,7.35-18.09,7.35Zm.1-48.15c-12.42,0-22.55,10.08-22.58,22.48-.03,12,10.14,22.26,22.21,22.4,6.06.07,11.8-2.21,16.06-6.41,4.24-4.18,6.59-9.8,6.61-15.84.02-6.17-2.29-11.9-6.51-16.14-4.15-4.17-9.75-6.48-15.75-6.49h-.03Z"/>
  </g>
  <g>
    <path class="cls-1" d="m226.62,119.39c9.9.11,20.8,2.34,30.54,8.67,25.85,16.81,24.55,49.12-2.5,63.94-7.79,4.27-16.17,6.49-24.91,7.05-3.65.23-4.94,1.68-5.79,4.9-1.67,6.29-3.68,12.5-5.63,18.72-.65,2.06-1.24,4.32-4.25,4.02-2.82-.28-2.76-2.46-2.96-4.42-.68-6.68-1.57-13.35-1.84-20.04-.16-3.96-1.33-5.97-5.29-7.47-16.87-6.41-28.1-21.18-27.24-36.26.97-17.09,11.24-27.62,26.13-34.32,7.04-3.17,14.53-4.44,23.74-4.78Zm-10.76,87.53c1.67-5,2.45-6.65,2.81-8.26,1.02-4.52,2.75-6.48,8.08-6.34,10.52.28,20.38-2.77,29.07-9.06,15.1-10.93,17.66-28.21,6.19-42.09-14.04-16.99-44.45-20.18-64.18-6.59-7.25,5-12.76,11.41-13.91,20.54-1.75,13.88,5.03,25.66,20.02,32.05,7.89,3.36,9.7,8.63,11.92,19.74Z"/>
    <path class="cls-1" d="m214.62,228.35c-.22,0-.46-.01-.7-.04-3.93-.39-4.22-3.65-4.38-5.4l-.04-.48c-.17-1.71-.36-3.42-.55-5.13-.54-4.9-1.1-9.98-1.3-15.01-.14-3.51-1.05-4.8-4.24-6.01-17.55-6.66-29.18-22.24-28.3-37.88.92-16.24,9.78-27.93,27.1-35.72,6.74-3.03,14.25-4.55,24.36-4.93h.04s.04,0,.04,0c11.94.14,22.51,3.14,31.41,8.93,12.79,8.32,19.84,20.74,19.33,34.09-.5,13.39-8.5,25.29-21.94,32.65-7.69,4.22-16.3,6.65-25.59,7.25-2.9.19-3.62,1.08-4.31,3.69-1.43,5.41-3.14,10.82-4.79,16.06l-.93,2.94c-.59,1.89-1.56,4.98-5.2,4.98Zm12.02-107.32c-9.64.36-16.76,1.79-23.09,4.64-16.09,7.24-24.33,18.01-25.17,32.92-.81,14.23,9.96,28.48,26.19,34.64,4.43,1.68,6.15,4.1,6.35,8.93.2,4.92.75,9.93,1.28,14.78.19,1.72.38,3.44.55,5.16l.05.52c.18,2.05.35,2.33,1.44,2.44,1.42.14,1.75-.41,2.46-2.67l.93-2.95c1.64-5.2,3.34-10.58,4.75-15.91.91-3.45,2.5-5.81,7.27-6.11,8.8-.56,16.95-2.87,24.22-6.85,12.4-6.8,19.78-17.7,20.24-29.91.46-12.17-6.05-23.55-17.85-31.22-8.36-5.44-18.33-8.27-29.62-8.4Zm-11.18,92.26l-1.21-6.04c-2.16-10.79-3.75-15.48-10.96-18.56-15.24-6.49-22.89-18.8-21-33.76,1.08-8.57,5.86-15.66,14.6-21.68,20.24-13.94,51.88-10.65,66.37,6.89,5.79,7.01,8.31,14.93,7.3,22.91-1.05,8.21-5.94,15.86-13.79,21.55-8.99,6.51-19.1,9.67-30.07,9.37-4.46-.12-5.57,1.22-6.44,5.06-.22.98-.58,1.96-1.11,3.43-.43,1.19-1,2.75-1.74,4.99l-1.95,5.85Zm10.91-85.5c-9.76,0-19.63,2.65-27.62,8.15-7.93,5.46-12.26,11.81-13.21,19.4-1.72,13.6,5.04,24.38,19.04,30.34,7.04,3,9.66,7.44,11.64,15.28.43-1.18.7-1.95.86-2.66,1.06-4.7,3.12-7.8,9.72-7.62,10.22.27,19.67-2.67,28.07-8.75,7.1-5.14,11.53-12,12.46-19.31.9-7.06-1.37-14.12-6.57-20.41-7.81-9.45-20.98-14.43-34.37-14.43Z"/>
  </g>
</svg>