<?xml version="1.0" encoding="UTF-8"?>
<svg id="Layer_1" data-name="Layer 1" xmlns="http://www.w3.org/2000/svg" viewBox="0 0 576 576">
  <defs>
    <style>
      .cls-1 {
        fill: #8e351e;
      }
    </style>
  </defs>
  <path class="cls-1" d="m468.3,420.25h-36.06c-4.19,0-7.59-3.4-7.59-7.59v-46.5h-36.43c-1.4,7.86-4.98,15.43-10.74,21.77-.68.75-1.41,1.48-2.86,2.93l-.12.12c-1.46,1.46-2.27,2.27-3.04,2.97-16.74,15.22-41.99,15.22-58.73,0-.77-.71-1.53-1.47-3.05-2.98l-3.66-3.66c-7.04,6.94-11.46,10.87-16.67,13.45-12.14,6.01-26.63,6.01-38.76,0-5.19-2.57-9.6-6.48-16.59-13.38-7.08,5.79-16.16,8.64-25.56,7.79-12.32-1.11-22.99-8.38-28.52-19.45l-4.79-9.58h-23.78v46.5c0,4.19-3.4,7.59-7.59,7.59h-36.06c-4.19,0-7.59-3.4-7.59-7.59s3.4-7.59,7.59-7.59h28.47v-183.15h-28.47c-4.19,0-7.59-3.4-7.59-7.59s3.4-7.59,7.59-7.59h50.97c15.6-15.28,38.61-34.6,63.41-44.52,25.64-10.26,48.27-8.2,65.93,5.88,17.65-14.08,40.28-16.14,65.93-5.88,24.79,9.92,47.8,29.24,63.4,44.52h50.97c4.19,0,7.59,3.4,7.59,7.59s-3.4,7.59-7.59,7.59h-28.47v183.15h28.47c4.19,0,7.59,3.4,7.59,7.59s-3.4,7.59-7.59,7.59Zm-162.27-51.24c2.01,0,3.94.8,5.37,2.22l9.02,9.01c1.35,1.35,2.03,2.03,2.54,2.49,10.91,9.91,27.37,9.92,38.29,0,.49-.44,1.13-1.08,2.53-2.48l.12-.12c1.24-1.24,1.92-1.92,2.36-2.4,4.8-5.28,7.28-11.86,7.44-18.48-.02-.22-.03-.45-.03-.68s.01-.46.03-.68c-.16-6.62-2.64-13.19-7.43-18.47-.44-.48-1.1-1.15-2.31-2.36l-27.22-27.22c-2.96-2.96-2.96-7.77,0-10.73s7.77-2.96,10.73,0l27.22,27.22c1.38,1.38,2.14,2.14,2.81,2.89,5.76,6.34,9.34,13.9,10.73,21.76h36.43v-129.06h-10.44c-2.01,0-3.94-.8-5.36-2.22-22.79-22.77-79.67-71.88-115.48-36.06h0s-.01.02-.02.02c0,0,0,0-.01.01,0,0,0,0,0,0l-54.06,54.08c-1.34,1.34-2.02,2.02-2.47,2.52-9.93,10.92-9.93,27.39,0,38.31.44.49,1.14,1.18,2.4,2.44l.08.08c1.32,1.32,2.02,2.02,2.52,2.47,10.92,9.92,27.39,9.92,38.3,0,.5-.46,1.22-1.17,2.52-2.47l18.04-18.04c2.96-2.96,7.77-2.96,10.73,0,2.96,2.96,2.96,7.77,0,10.73l-18.04,18.04c-1.51,1.51-2.27,2.27-3.04,2.97-16.74,15.22-41.98,15.22-58.72,0-.76-.69-1.51-1.43-2.99-2.92l-.13-.13c-1.47-1.47-2.21-2.2-2.89-2.96-15.23-16.74-15.24-41.99-.01-58.73.7-.77,1.46-1.53,2.97-3.04l48.31-48.33c-35.88-25.8-88.09,19.42-109.69,41-1.42,1.42-3.35,2.22-5.36,2.22h-10.44v129.06h28.47c2.87,0,5.5,1.62,6.79,4.2l6.89,13.77c3.16,6.33,9.26,10.49,16.31,11.12,7.05.63,13.79-2.37,18.04-8.03,1.32-1.76,3.34-2.86,5.53-3.02,2.19-.16,4.35.65,5.9,2.2,9.23,9.23,13.86,13.87,18.05,15.94,7.92,3.92,17.37,3.92,25.28,0,4.19-2.08,8.82-6.71,18.05-15.94,1.42-1.42,3.35-2.22,5.37-2.22Z"/>
</svg>