<?xml version="1.0" encoding="UTF-8" standalone="no" ?>
<!DOCTYPE svg PUBLIC "-//W3C//DTD SVG 1.1//EN" "http://www.w3.org/Graphics/SVG/1.1/DTD/svg11.dtd">
<svg xmlns="http://www.w3.org/2000/svg" xmlns:xlink="http://www.w3.org/1999/xlink" version="1.1" width="1080" height="1080" viewBox="0 0 1080 1080" xml:space="preserve">
<desc>Created with Fabric.js 5.2.4</desc>
<defs>
</defs>
<g transform="matrix(1 0 0 1 540 540)" id="aaa7c691-e996-4fb9-af34-57e54e3feda5"  >
<rect style="stroke: none; stroke-width: 1; stroke-dasharray: none; stroke-linecap: butt; stroke-dashoffset: 0; stroke-linejoin: miter; stroke-miterlimit: 4; fill: rgb(255,255,255); fill-rule: nonzero; opacity: 1; visibility: hidden;" vector-effect="non-scaling-stroke"  x="-540" y="-540" rx="0" ry="0" width="1080" height="1080" />
</g>
<g transform="matrix(1 0 0 1 540 540)" id="974f29f8-5139-485c-8b9c-6e4d1521d5ac"  >
</g>
<g transform="matrix(1 0 0 1 540 540)"  >
<g style="" vector-effect="non-scaling-stroke"   >
		<g transform="matrix(1 0 0 1 -106.95 0)" id="Path_282" clip-path="url(#CLIPPATH_5)"  >
<clipPath id="CLIPPATH_5" >
	<rect transform="matrix(1 0 0 1 0 0)" id="clippath" x="-48.75" y="-47.47" rx="0" ry="0" width="97.5" height="94.94" />
</clipPath>
<path style="stroke: rgb(142,54,31); stroke-width: 2; stroke-dasharray: none; stroke-linecap: butt; stroke-dashoffset: 0; stroke-linejoin: miter; stroke-miterlimit: 4; fill: rgb(166,76,42); fill-rule: nonzero; opacity: 1;" vector-effect="non-scaling-stroke"  transform=" translate(-186.38, -301.65)" d="M 200.56 268.84 C 193.22 268.84 188.99 273.07 186.17000000000002 277.42999999999995 C 185.69000000000003 276.79999999999995 185.17000000000002 276.16999999999996 184.62 275.54999999999995 C 181.54 272.06999999999994 177.9 268.84999999999997 172.20000000000002 268.84999999999997 L 172.20000000000002 268.84999999999997 C 161.06 269.01 152.15 278.15999999999997 152.29000000000002 289.29999999999995 C 152.27 294.60999999999996 154.3 299.72999999999996 157.96 303.59 L 184.03 333.21 C 184.74 334.01 185.76 334.46999999999997 186.83 334.46999999999997 L 186.86 334.46999999999997 C 187.94000000000003 334.46999999999997 188.97000000000003 333.97999999999996 189.67000000000002 333.15 L 214.56 303.83 L 215.72 302.55 C 215.79 302.47 215.85 302.40000000000003 215.92 302.31 C 218.86999999999998 298.62 220.48 294.03000000000003 220.47 289.3 C 220.60999999999999 278.16 211.7 269.02 200.57 268.85 M 210.09 297.65000000000003 L 186.78 325.03000000000003 L 163.56 298.65000000000003 C 163.56 298.65000000000003 163.39000000000001 298.47 163.36 298.44000000000005 C 161.02 295.97 159.73000000000002 292.69000000000005 159.75 289.2900000000001 C 159.61 282.2700000000001 165.18 276.4700000000001 172.19 276.31000000000006 L 172.19 276.31000000000006 C 174.53 276.31000000000006 176.26 277.36000000000007 179.03 280.50000000000006 C 180.6 282.31000000000006 181.96 284.2900000000001 183.07 286.4100000000001 C 184.03 288.2300000000001 186.29 288.9200000000001 188.10999999999999 287.9600000000001 C 188.76999999999998 287.61000000000007 189.30999999999997 287.0700000000001 189.66 286.4100000000001 L 190.07999999999998 285.6300000000001 C 193.02999999999997 280.0100000000001 195.35999999999999 276.3200000000001 200.54999999999998 276.3200000000001 C 207.57 276.4700000000001 213.14 282.2800000000001 213.01 289.29000000000013 C 213.01 292.33000000000015 211.98999999999998 295.27000000000015 210.09 297.65000000000015" stroke-linecap="round" />
</g>
		<g transform="matrix(1 0 0 1 0 0)" id="Path_283" clip-path="url(#CLIPPATH_6)"  >
<clipPath id="CLIPPATH_6" >
	<rect transform="matrix(1 0 0 1 -0.01 -0.01)" id="clippath-1" x="-44.56" y="-41.185" rx="0" ry="0" width="89.12" height="82.37" />
</clipPath>
<path style="stroke: rgb(142,54,31); stroke-width: 2; stroke-dasharray: none; stroke-linecap: butt; stroke-dashoffset: 0; stroke-linejoin: miter; stroke-miterlimit: 4; fill: rgb(166,76,42); fill-rule: nonzero; opacity: 1;" vector-effect="non-scaling-stroke"  transform=" translate(-293.33, -301.65)" d="M 307.51 268.84 C 300.17 268.84 295.94 273.07 293.12 277.42999999999995 C 292.64 276.79999999999995 292.12 276.16999999999996 291.57 275.54999999999995 C 288.49 272.06999999999994 284.84999999999997 268.84999999999997 279.15 268.84999999999997 L 279.15 268.84999999999997 C 268.01 269.01 259.09999999999997 278.15999999999997 259.23999999999995 289.29999999999995 C 259.21999999999997 294.60999999999996 261.24999999999994 299.72999999999996 264.90999999999997 303.59 L 290.97999999999996 333.21 C 291.68999999999994 334.01 292.71 334.46999999999997 293.78 334.46999999999997 L 293.80999999999995 334.46999999999997 C 294.88999999999993 334.46999999999997 295.91999999999996 333.97999999999996 296.61999999999995 333.15 L 321.50999999999993 303.83 L 322.66999999999996 302.55 C 322.73999999999995 302.47 322.79999999999995 302.40000000000003 322.86999999999995 302.31 C 325.81999999999994 298.62 327.42999999999995 294.03000000000003 327.41999999999996 289.3 C 327.55999999999995 278.16 318.65 269.02 307.52 268.85 M 317.03999999999996 297.65000000000003 L 293.72999999999996 325.03000000000003 L 270.51 298.65000000000003 C 270.51 298.65000000000003 270.34 298.47 270.31 298.44000000000005 C 267.97 295.97 266.68 292.69000000000005 266.7 289.2900000000001 C 266.56 282.2700000000001 272.13 276.4700000000001 279.14 276.31000000000006 L 279.14 276.31000000000006 C 281.47999999999996 276.31000000000006 283.21 277.36000000000007 285.97999999999996 280.50000000000006 C 287.54999999999995 282.31000000000006 288.90999999999997 284.2900000000001 290.02 286.4100000000001 C 290.97999999999996 288.2300000000001 293.24 288.9200000000001 295.06 287.9600000000001 C 295.72 287.61000000000007 296.26 287.0700000000001 296.61 286.4100000000001 L 297.03000000000003 285.6300000000001 C 299.98 280.0100000000001 302.31 276.3200000000001 307.50000000000006 276.3200000000001 C 314.52000000000004 276.4700000000001 320.09000000000003 282.2800000000001 319.96000000000004 289.29000000000013 C 319.96000000000004 292.33000000000015 318.94000000000005 295.27000000000015 317.04 297.65000000000015" stroke-linecap="round" />
</g>
		<g transform="matrix(1 0 0 1 106.95 0)" id="Path_284" clip-path="url(#CLIPPATH_7)"  >
<clipPath id="CLIPPATH_7" >
	<rect transform="matrix(1 0 0 1 -0.02 -0.01)" id="clippath-2" x="-42.465" y="-41.185" rx="0" ry="0" width="84.93" height="82.37" />
</clipPath>
<path style="stroke: rgb(142,54,31); stroke-width: 2; stroke-dasharray: none; stroke-linecap: butt; stroke-dashoffset: 0; stroke-linejoin: miter; stroke-miterlimit: 4; fill: rgb(166,76,42); fill-rule: nonzero; opacity: 1;" vector-effect="non-scaling-stroke"  transform=" translate(-400.28, -301.65)" d="M 414.46 268.84 C 407.12 268.84 402.89 273.07 400.07 277.42999999999995 C 399.59 276.79999999999995 399.07 276.16999999999996 398.52 275.54999999999995 C 395.44 272.06999999999994 391.79999999999995 268.84999999999997 386.09999999999997 268.84999999999997 L 386.09999999999997 268.84999999999997 C 374.96 269.01 366.04999999999995 278.15999999999997 366.18999999999994 289.29999999999995 C 366.16999999999996 294.60999999999996 368.19999999999993 299.72999999999996 371.85999999999996 303.59 L 397.92999999999995 333.21 C 398.63999999999993 334.01 399.65999999999997 334.46999999999997 400.72999999999996 334.46999999999997 L 400.75999999999993 334.46999999999997 C 401.8399999999999 334.46999999999997 402.86999999999995 333.97999999999996 403.56999999999994 333.15 L 428.4599999999999 303.83 L 429.61999999999995 302.55 C 429.68999999999994 302.47 429.74999999999994 302.40000000000003 429.81999999999994 302.31 C 432.7699999999999 298.62 434.37999999999994 294.03000000000003 434.36999999999995 289.3 C 434.50999999999993 278.16 425.59999999999997 269.02 414.46999999999997 268.85 M 423.98999999999995 297.65000000000003 L 400.67999999999995 325.03000000000003 L 377.4599999999999 298.65000000000003 C 377.4599999999999 298.65000000000003 377.2899999999999 298.47 377.25999999999993 298.44000000000005 C 374.91999999999996 295.97 373.62999999999994 292.69000000000005 373.6499999999999 289.2900000000001 C 373.50999999999993 282.2700000000001 379.0799999999999 276.4700000000001 386.0899999999999 276.31000000000006 L 386.0899999999999 276.31000000000006 C 388.4299999999999 276.31000000000006 390.1599999999999 277.36000000000007 392.9299999999999 280.50000000000006 C 394.4999999999999 282.31000000000006 395.8599999999999 284.2900000000001 396.9699999999999 286.4100000000001 C 397.9299999999999 288.2300000000001 400.18999999999994 288.9200000000001 402.00999999999993 287.9600000000001 C 402.66999999999996 287.61000000000007 403.2099999999999 287.0700000000001 403.55999999999995 286.4100000000001 L 403.97999999999996 285.6300000000001 C 406.92999999999995 280.0100000000001 409.25999999999993 276.3200000000001 414.45 276.3200000000001 C 421.46999999999997 276.4700000000001 427.03999999999996 282.2800000000001 426.90999999999997 289.29000000000013 C 426.90999999999997 292.33000000000015 425.89 295.27000000000015 423.98999999999995 297.65000000000015" stroke-linecap="round" />
</g>
</g>
</g>
<g transform="matrix(NaN NaN NaN NaN 0 0)"  >
<g style=""   >
</g>
</g>
<g transform="matrix(NaN NaN NaN NaN 0 0)"  >
<g style=""   >
</g>
</g>
</svg>